<?xml version="1.0" standalone="no"?>
<!DOCTYPE svg PUBLIC "-//W3C//DTD SVG 1.1//EN" "http://www.w3.org/Graphics/SVG/1.1/DTD/svg11.dtd" >
<svg xmlns="http://www.w3.org/2000/svg">
<metadata></metadata>
<defs>
<font id="din_round_promedium" horiz-adv-x="1091" >
<font-face units-per-em="2048" ascent="1565" descent="-483" />
<missing-glyph horiz-adv-x="491" />
<glyph horiz-adv-x="0" />
<glyph horiz-adv-x="0" />
<glyph horiz-adv-x="682" />
<glyph unicode="&#xd;" horiz-adv-x="491" />
<glyph unicode=" "  horiz-adv-x="491" />
<glyph unicode="&#x09;" horiz-adv-x="491" />
<glyph unicode="&#xa0;" horiz-adv-x="491" />
<glyph unicode="!" horiz-adv-x="680" d="M243 127q0 55 38.5 94t94.5 39t94.5 -39t38.5 -94t-38.5 -94t-94.5 -39t-94.5 39t-38.5 94zM265 577v739q0 42 3 60.5t14 39.5q27 50 94 50t94 -50q11 -21 13.5 -39t2.5 -61v-739q0 -43 -2.5 -61.5t-13.5 -39.5q-27 -50 -94 -50t-94 50q-11 21 -14 40t-3 61z" />
<glyph unicode="&#x22;" horiz-adv-x="875" d="M138 1113v216q0 62 17 95q26 46 88 46t88 -46q16 -31 16 -95v-216q0 -64 -16 -95q-25 -46 -88 -46t-88 46q-17 33 -17 95zM528 1113v216q0 62 17 95q26 46 88 46t88 -46q16 -31 16 -95v-216q0 -64 -16 -95q-25 -46 -88 -46t-88 46q-17 33 -17 95z" />
<glyph unicode="#" horiz-adv-x="1431" d="M106 517q0 55 44 80q23 14 84 14h114l53 268h-98q-60 0 -85 14q-43 25 -43 80t43 80q23 14 85 14h136l60 294q13 65 38 90q24 24 64 24q43 0 73 -28q23 -23 26 -56t-7 -69l-51 -255h277l59 294q13 65 38 90q24 24 64 24q43 0 73 -28q23 -23 26 -56t-7 -69l-51 -255h76 q62 0 85 -14q43 -25 43 -80t-43 -80q-25 -14 -85 -14h-114l-53 -268h98q62 0 85 -14q43 -25 43 -80t-43 -80q-25 -14 -85 -14h-136l-63 -318q-13 -65 -38 -90q-23 -23 -65 -23q-44 0 -72 27q-23 23 -26.5 56t6.5 69l56 279h-277l-63 -318q-13 -65 -38 -90q-23 -23 -65 -23 q-45 0 -73 27q-23 23 -26 56t7 69l55 279h-76q-59 0 -84 14q-44 25 -44 80zM551 611h276l54 268h-277z" />
<glyph unicode="$" horiz-adv-x="1210" d="M85 215q0 42 31 73q26 26 64 26q43 0 94 -36q112 -78 228 -90v458l-5 1q-174 25 -276 118q-107 98 -107 279q0 168 101 280t281 139v69q0 60 14 85q25 43 80 43t80 -43q14 -23 14 -85v-65q119 -10 260 -83q89 -47 89 -111q0 -39 -25 -68q-26 -31 -68 -31q-37 0 -89 31 q-86 53 -173 66v-443l38 -5q99 -15 160.5 -40t109.5 -68q119 -110 119 -299q0 -175 -114.5 -286.5t-306.5 -135.5v-109q0 -62 -14 -85q-25 -43 -80 -43t-80 43q-14 25 -14 85v106q-168 12 -308 95q-58 34 -80.5 62t-22.5 67zM329 1051q0 -89 53 -136q47 -41 120 -57v409 q-84 -21 -128.5 -77.5t-44.5 -138.5zM678 191q100 17 154 73.5t54 145.5q0 101 -58 151q-49 43 -150 60v-430z" />
<glyph unicode="%" horiz-adv-x="1721" d="M118 983v208q0 130 82 204.5t206 74.5q125 0 206 -74.5t81 -204.5v-208q0 -130 -81 -203.5t-206 -73.5t-206.5 74t-81.5 203zM274 989q0 -145 132 -145q131 0 131 145v197q0 145 -131 145q-132 0 -132 -145v-197zM456 60q-1 25 19 67l637 1272q20 42 41 55q19 12 37 12 t36 -9q40 -19 41 -59q1 -23 -20 -67l-637 -1272q-20 -42 -41 -55q-19 -12 -37 -12q-17 0 -35 9q-40 19 -41 59zM1028 265v208q0 130 82 205t206 75q125 0 206.5 -75t81.5 -205v-208q0 -129 -81.5 -203t-206.5 -74t-206.5 74t-81.5 203zM1185 271q0 -145 131 -145t131 145 v197q0 145 -131 145t-131 -145v-197z" />
<glyph unicode="&#x26;" horiz-adv-x="1462" d="M140 422q0 73 23.5 135.5t69 113t89 86t107.5 77.5q-32 37 -52.5 64t-46.5 68.5t-39 87t-13 93.5q0 141 97.5 232t258.5 91q154 0 250 -92t96 -233q0 -151 -156 -258l-106 -74l307 -367q64 88 75 230q4 43 19 70q25 45 80 45q58 0 84 -46q15 -25 15 -73 q0 -34 -12.5 -99.5t-29.5 -112.5q-37 -97 -97 -167l84 -100q28 -33 38.5 -53t10.5 -43q0 -46 -40 -80q-30 -25 -68 -25q-29 0 -50.5 15t-51.5 51l-69 83q-33 -29 -61 -48.5t-79 -47t-118 -42.5t-144 -15q-224 0 -347.5 116.5t-123.5 317.5zM349 426q0 -109 74 -179.5 t188 -70.5q77 0 143.5 26t135.5 89l-346 411q-49 -35 -76 -57t-59 -56.5t-46 -74t-14 -88.5zM490 1145q0 -42 26.5 -86.5t86.5 -114.5l70 47q50 34 78 69.5t28 82.5q0 62 -40.5 103.5t-104.5 41.5q-66 0 -105 -40t-39 -103z" />
<glyph unicode="'" horiz-adv-x="485" d="M138 1113v216q0 62 17 95q26 46 88 46t88 -46q16 -31 16 -95v-216q0 -64 -16 -95q-25 -46 -88 -46t-88 46q-17 33 -17 95z" />
<glyph unicode="(" horiz-adv-x="650" d="M179 241v978q0 145 41 228q37 75 115 154q56 56 102 56q47 0 75 -31q29 -29 29 -67q0 -52 -58 -104q-39 -37 -63 -86q-32 -61 -32 -163v-953q0 -102 32 -163q24 -49 63 -86q31 -28 44.5 -51t13.5 -52q0 -39 -29 -68q-28 -31 -75 -31q-45 0 -102 57q-79 80 -115 153 q-41 83 -41 229z" />
<glyph unicode=")" horiz-adv-x="650" d="M110 -99q0 52 57 103q39 37 63 86q32 61 32 163v953q0 102 -32 163q-24 49 -63 86q-57 51 -57 104q0 39 28 67q28 31 75 31q46 0 102 -56q78 -79 115 -154q41 -83 41 -228v-978q0 -146 -41 -229q-36 -73 -115 -153q-57 -57 -102 -57q-47 0 -75 31q-28 28 -28 68z" />
<glyph unicode="*" horiz-adv-x="976" d="M147 948q13 21 54 45l143 86l-143 86q-41 24 -54 45q-18 34 3 72q23 38 62 36q25 -1 66 -25l136 -82v159q0 48 11 68q20 35 63 35q44 0 64 -35q11 -20 11 -68v-159l136 82q41 24 66 25q39 2 62 -36q20 -37 2 -72q-13 -22 -53 -45l-143 -86l143 -86q40 -23 53 -45 q18 -35 -2 -71q-23 -38 -62 -36q-27 2 -66 24l-136 82v-159q0 -47 -11 -67q-20 -35 -64 -35q-43 0 -63 35q-11 20 -11 67v159l-136 -82q-39 -22 -66 -24q-39 -2 -62 36q-21 37 -3 71z" />
<glyph unicode="+" d="M96 568q0 55 43 80q25 15 85 15h228v227q0 60 14 85q25 43 80 43t80 -43q14 -23 14 -85v-227h227q60 0 85 -15q43 -25 43 -80t-43 -80q-25 -14 -85 -14h-227v-227q0 -62 -14 -85q-25 -43 -80 -43t-80 43q-14 25 -14 85v227h-228q-60 0 -85 14q-43 25 -43 80z" />
<glyph unicode="," horiz-adv-x="530" d="M72 -179q-5 33 14 93l90 270q20 62 45 84q27 24 63 24q35 0 67.5 -21t38.5 -60q5 -33 -14 -93l-90 -271q-20 -62 -45 -84q-26 -23 -63 -23q-35 0 -67.5 21t-38.5 60z" />
<glyph unicode="-" horiz-adv-x="874" d="M130 568q0 55 43 80q25 15 85 15h358q60 0 85 -15q43 -25 43 -80t-43 -80q-25 -14 -85 -14h-358q-60 0 -85 14q-43 25 -43 80z" />
<glyph unicode="." horiz-adv-x="571" d="M136 143q0 61 44 104.5t106 43.5t105.5 -43.5t43.5 -104.5t-43.5 -105t-105.5 -44t-106 44t-44 105z" />
<glyph unicode="/" horiz-adv-x="779" d="M32 -97q-11 34 11 100l506 1515q16 50 37 75t64 25q34 0 62 -19t36 -44q10 -32 -12 -100l-506 -1514q-16 -50 -37 -75.5t-64 -25.5q-34 0 -61.5 19t-35.5 44z" />
<glyph unicode="0" d="M125 406v647q0 126 57 222.5t152 145.5t211 49q180 0 301 -113.5t121 -303.5v-647q0 -190 -121 -304t-301 -114q-179 0 -299.5 114t-120.5 304zM334 414q0 -106 57 -172t154 -66q98 0 155.5 66t57.5 172v630q0 106 -57.5 172t-155.5 66q-97 0 -154 -66t-57 -172v-630z " />
<glyph unicode="1" d="M184 1069q7 28 53 74l267 267q56 56 114 56q49 0 79 -30q31 -32 31 -110v-1192q0 -62 -15 -93q-25 -49 -89 -49t-89 49q-16 33 -16 93v1015l-144 -144q-46 -46 -73 -53q-50 -13 -91 28q-40 40 -27 89z" />
<glyph unicode="2" d="M120 103q0 31 12.5 55t45.5 65l488 611q51 65 75 120t24 123q0 92 -55.5 148.5t-155.5 56.5q-81 0 -134.5 -39t-83.5 -128q-16 -49 -41 -72q-21 -21 -64 -21q-50 0 -74 33q-25 32 -25 74q0 55 31 122t86 116q117 103 301 103q195 0 310 -102.5t115 -286.5 q0 -104 -34.5 -178t-113.5 -172l-433 -543h463q62 0 85 -14q43 -22 43 -80t-43 -80q-25 -14 -85 -14h-590q-31 0 -48 1.5t-37.5 8.5t-34.5 21q-27 29 -27 72z" />
<glyph unicode="3" d="M103 314q0 48 33 81q32 32 78 32q39 0 62 -29q9 -12 23.5 -51t26.5 -62q54 -109 206 -109q105 0 171.5 64t66.5 177q0 112 -60.5 174t-174.5 64q-43 2 -66 15q-42 22 -42 76t42 77q25 15 66 15q104 2 161 60.5t57 162.5q0 103 -60.5 162t-157.5 59q-83 0 -131.5 -34.5 t-74.5 -112.5q-16 -49 -42 -72q-25 -20 -57 -20q-42 0 -74 29q-33 30 -33 80q0 92 77 178q122 140 335 140q187 0 307.5 -107.5t120.5 -292.5q0 -226 -189 -316q96 -39 150.5 -125t54.5 -216q0 -136 -62 -234t-162 -144.5t-224 -46.5q-226 0 -348 137q-80 91 -80 189z" />
<glyph unicode="4" d="M47 329q0 29 28 87l480 962q28 54 53 73q21 15 49 15q38 0 68.5 -27t30.5 -65q0 -28 -27 -83l-434 -870h329v213q0 62 15 93q25 49 89 49t89 -49q16 -33 16 -93v-213h69q63 0 90 -14q45 -25 45 -84t-45 -84q-29 -15 -90 -15h-69v-90q0 -60 -16 -93q-25 -49 -89 -49 t-89 49q-15 31 -15 93v90h-433q-74 0 -107 27q-37 26 -37 78z" />
<glyph unicode="5" d="M136 309q0 49 29 80q27 30 74 30q41 0 65 -22q25 -24 47 -91q42 -130 197 -130q101 0 157 56q41 41 54.5 103.5t13.5 151.5q0 69 -9.5 121t-33 96t-66.5 67t-105 23q-67 0 -111.5 -19.5t-82.5 -67.5q-18 -22 -42 -37q-23 -15 -59 -15q-45 0 -73 28q-29 26 -29 90v566 q0 66 27 93q13 13 30.5 19t28 6.5t32.5 0.5h548q62 0 85 -14q43 -25 43 -80t-43 -80q-25 -14 -85 -14h-477v-382q85 85 242 85q168 0 262 -94q75 -75 101 -172t26 -220q0 -132 -25 -222t-99 -164q-113 -113 -310 -113q-194 0 -306 101q-47 43 -76.5 101.5t-29.5 118.5z" />
<glyph unicode="6" d="M116 424q0 140 102 346l304 608q28 54 53 73q21 15 50 15q38 0 68 -27t30 -65q0 -28 -27 -83l-230 -460q56 23 129 23q162 0 272.5 -117t110.5 -305q0 -200 -120 -322t-310 -122q-192 0 -312 118t-120 318zM325 428q0 -116 61 -184t160 -68q100 0 161.5 68t61.5 184 q0 110 -60.5 181t-162.5 71q-100 0 -160.5 -67.5t-60.5 -184.5z" />
<glyph unicode="7" d="M127 1177v153q0 68 30 98t98 30h607q47 0 72 -5.5t46 -24.5q31 -27 31 -75q0 -27 -24 -91l-439 -1172q-22 -59 -44 -79q-22 -19 -55 -19q-36 0 -67.5 22.5t-35.5 55.5q-4 30 18 89l416 1111h-444v-93q0 -63 -15 -94q-25 -49 -90 -49t-89 49q-15 31 -15 94z" />
<glyph unicode="8" d="M96 412q0 222 201 342q-78 47 -127 126t-49 187q0 180 121 291.5t303 111.5t304 -111.5t122 -291.5q0 -108 -49 -187t-127 -126q200 -120 200 -342q0 -193 -128.5 -308.5t-321.5 -115.5t-321 115.5t-128 308.5zM305 418q0 -102 70 -172t171 -70t170 69.5t69 172.5 q0 102 -69 171t-170 69t-171 -69t-70 -171zM329 1061q0 -95 61.5 -157.5t155.5 -62.5t155.5 62t61.5 158q0 95 -61.5 158t-155.5 63t-155.5 -63t-61.5 -158z" />
<glyph unicode="9" d="M114 1026q0 200 120 322t310 122q192 0 312 -118t120 -318q0 -138 -103 -346l-304 -608q-28 -54 -53 -73q-21 -15 -49 -15q-38 0 -68 27t-30 65q0 30 26 83l231 460q-56 -23 -129 -23q-162 0 -272.5 117t-110.5 305zM323 1030q0 -110 60.5 -181t162.5 -71 q100 0 160.5 67.5t60.5 184.5q0 116 -61 184t-160 68q-100 0 -161.5 -68t-61.5 -184z" />
<glyph unicode=":" horiz-adv-x="622" d="M188 143q0 61 44 104.5t106 43.5t105.5 -43.5t43.5 -104.5t-43.5 -105t-105.5 -44t-106 44t-44 105zM188 712q0 61 44 104t106 43t105.5 -43t43.5 -104q0 -62 -44 -106t-105 -44q-62 0 -106 44t-44 106z" />
<glyph unicode=";" horiz-adv-x="622" d="M151 -179q-5 33 14 93l90 270q20 62 45 84q27 24 62 24t68 -21t39 -60q5 -33 -14 -93l-90 -271q-20 -60 -46 -84q-26 -23 -62 -23q-35 0 -67.5 21t-38.5 60zM217 711q0 61 44 104t106 43t105.5 -43t43.5 -104q0 -62 -44 -106t-105 -44t-105.5 44.5t-44.5 105.5z" />
<glyph unicode="&#x3c;" d="M155 568q0 26 8 46t26.5 35.5t32.5 24.5t42 23l480 240q55 27 83 27q38 0 65.5 -30.5t27.5 -68.5q0 -27 -16 -49q-19 -25 -73 -53l-389 -195l389 -194q54 -28 73 -53q16 -22 16 -50q0 -38 -27.5 -68t-65.5 -30q-28 0 -83 27l-480 239q-28 14 -42 23t-32.5 24.5 t-26.5 35.5t-8 46z" />
<glyph unicode="=" d="M96 366q0 54 43 79q25 15 85 15h643q60 0 85 -15q43 -25 43 -79q0 -55 -43 -80q-27 -15 -85 -15h-643q-58 0 -85 15q-43 25 -43 80zM96 770q0 55 43 80q23 14 85 14h643q62 0 85 -14q43 -25 43 -80t-43 -80q-25 -14 -85 -14h-643q-60 0 -85 14q-43 25 -43 80z" />
<glyph unicode="&#x3e;" d="M172 271q0 29 15 50q19 25 73 53l389 194l-389 195q-54 28 -73 53q-15 21 -15 49q0 38 27 68.5t65 30.5q28 0 83 -27l480 -240q28 -14 42.5 -22.5t33 -24.5t26.5 -36t8 -46t-8 -46t-26.5 -36t-33 -24.5t-42.5 -22.5l-480 -239q-55 -27 -83 -27q-38 0 -65 30t-27 68z" />
<glyph unicode="?" horiz-adv-x="1045" d="M150 1120q0 58 29 124t81 116q116 110 294 110q174 0 291.5 -106.5t117.5 -278.5q0 -75 -23.5 -130t-73.5 -124l-140 -193q-40 -55 -51 -132q-6 -42 -30 -69q-28 -31 -79 -31q-49 0 -79 33q-26 29 -26 79q0 57 14 97.5t55 96.5l160 215q63 84 63 158q0 85 -55.5 141.5 t-142.5 56.5q-90 0 -146 -56q-39 -39 -60 -121q-11 -45 -28 -63q-27 -30 -76 -30q-44 0 -71 30q-24 28 -24 77zM432 127q0 55 39 94t94 39t94 -39t39 -94t-39 -94t-94 -39t-94 39t-39 94z" />
<glyph unicode="@" horiz-adv-x="1508" d="M131 335v650q0 236 121 358q119 120 351 120h303q231 0 350 -120q121 -122 121 -358v-851q0 -62 -15 -93q-24 -49 -89 -49q-47 0 -74 27q-26 26 -28 79q-55 -62 -116 -86t-142 -24q-154 0 -242 88q-67 67 -91 164.5t-24 238.5q0 142 24 240t91 165q88 88 241 88 q83 0 146.5 -26t115.5 -89l1 120q0 77 -16 127.5t-59 93.5q-77 77 -215 77h-261q-138 0 -215 -77q-43 -43 -59 -93.5t-16 -127.5v-633q0 -75 13 -110.5t51 -76.5q39 -44 39 -80q0 -44 -35 -76q-33 -27 -69 -27q-29 0 -50 14.5t-51 48.5q-54 60 -77.5 123.5t-23.5 174.5z M759 479q0 -72 8.5 -124.5t30 -98t64 -69t104.5 -23.5t104.5 23.5t64.5 69t31 98.5t9 124q0 72 -9 125t-31 99t-64.5 70t-104.5 24t-104.5 -24t-64 -70t-30 -99t-8.5 -125z" />
<glyph unicode="A" horiz-adv-x="1275" d="M49 70q-2 12 -2.5 24t2.5 22q5 21 18 55l446 1189q19 52 44 76q33 30 81 30t81 -30q25 -24 44 -76l446 -1189q13 -34 18 -55q2 -10 2.5 -22t-2.5 -24q-5 -25 -25 -45q-31 -33 -81 -33q-34 0 -60 21q-24 19 -48 84l-73 196h-604l-73 -196q-24 -65 -48 -84q-26 -21 -60 -21 q-50 0 -81 33q-20 20 -25 45zM404 481h467l-233 638z" />
<glyph unicode="B" horiz-adv-x="1357" d="M189 135v1188q0 71 32 103t104 32h432q203 0 321.5 -107.5t118.5 -291.5q0 -111 -58 -194t-139 -115q94 -38 157 -123.5t63 -214.5q0 -196 -121 -304t-320 -108h-454q-72 0 -104 32t-32 103zM411 197h348q113 0 176 62.5t63 162.5q0 99 -63 160.5t-176 61.5h-348v-447z M411 841h327q108 0 173 55.5t65 154.5q0 100 -65 155.5t-173 55.5h-327v-421z" />
<glyph unicode="C" horiz-adv-x="1283" d="M138 729q0 108 2 167.5t9.5 130.5t23 115.5t43 91t69.5 88.5q148 148 375 148q132 0 222 -37.5t160 -112.5q56 -61 84 -125.5t28 -109.5q0 -53 -30 -83q-33 -30 -76 -30q-40 0 -66 21q-28 21 -54 83q-41 98 -107 148t-165 50q-125 0 -210 -91q-56 -60 -71.5 -148 t-15.5 -306t15.5 -306t71.5 -148q85 -91 210 -91q99 0 165 50t107 148q26 62 54 83q26 21 66 21q43 0 76 -30q30 -30 30 -83q0 -45 -28 -109.5t-84 -125.5q-70 -75 -160 -112.5t-222 -37.5q-227 0 -375 148q-42 42 -69.5 88.5t-43 91t-23 115.5t-9.5 130.5t-2 167.5z" />
<glyph unicode="D" horiz-adv-x="1363" d="M189 135v1188q0 71 32 103t104 32h377q270 0 416 -185q70 -90 89 -205t19 -339q0 -221 -19.5 -338t-90.5 -208q-142 -183 -414 -183h-377q-72 0 -104 32t-32 103zM411 197h266q166 0 251 99q50 56 63.5 150t13.5 283t-13.5 283t-63.5 150q-86 100 -251 100h-266v-1065z " />
<glyph unicode="E" horiz-adv-x="1231" d="M189 135v1188q0 71 32 103t104 32h671q63 0 90 -14q46 -26 46 -84t-46 -84q-27 -14 -90 -14h-585v-428h481q61 0 90 -15q45 -25 45 -84t-45 -84q-27 -14 -90 -14h-481v-440h585q61 0 90 -15q46 -26 46 -84t-46 -84q-27 -14 -90 -14h-671q-72 0 -104 32t-32 103z" />
<glyph unicode="F" horiz-adv-x="1196" d="M189 142v1181q0 71 32 103t104 32h671q63 0 90 -14q46 -26 46 -84t-46 -84q-27 -14 -90 -14h-585v-448h481q63 0 90 -14q45 -25 45 -84t-45 -84q-29 -15 -90 -15h-481v-475q0 -42 -3 -60.5t-14 -39.5q-27 -50 -94 -50t-94 50q-11 21 -14 39.5t-3 60.5z" />
<glyph unicode="G" horiz-adv-x="1312" d="M138 729q0 108 2 167.5t9.5 130.5t23 115.5t43 91t69.5 88.5q148 148 375 148q132 0 222 -37.5t160 -112.5q56 -61 84 -125.5t28 -109.5q0 -53 -30 -83q-33 -30 -76 -30q-40 0 -66 21q-28 21 -54 83q-41 98 -107 148t-165 50q-125 0 -210 -91q-56 -60 -71.5 -148 t-15.5 -306q0 -221 16 -309t70 -145q85 -91 218 -91q128 0 216 88q49 51 66 116.5t17 185.5h-185q-61 0 -90 15q-45 25 -45 84t45 84q27 14 90 14h262q72 0 104 -32t32 -103v-22q0 -187 -28.5 -290.5t-110.5 -185.5q-150 -150 -373 -150q-230 0 -378 148q-42 42 -69.5 88.5 t-43 91t-23 115.5t-9.5 130.5t-2 167.5z" />
<glyph unicode="H" horiz-adv-x="1413" d="M189 142v1174q0 42 3 60.5t14 39.5q27 50 94 50t94 -50q11 -21 14 -39.5t3 -60.5v-481h591v481q0 42 3 60.5t14 39.5q27 50 94 50t94 -50q11 -21 14 -39.5t3 -60.5v-1174q0 -42 -3 -60.5t-14 -39.5q-27 -50 -94 -50t-94 50q-11 21 -14 39.5t-3 60.5v496h-591v-496 q0 -42 -3 -60.5t-14 -39.5q-27 -50 -94 -50t-94 50q-11 21 -14 39.5t-3 60.5z" />
<glyph unicode="I" horiz-adv-x="600" d="M189 142v1174q0 42 3 60.5t14 39.5q27 50 94 50t94 -50q11 -21 14 -39.5t3 -60.5v-1174q0 -42 -3 -60.5t-14 -39.5q-27 -50 -94 -50t-94 50q-11 21 -14 39.5t-3 60.5z" />
<glyph unicode="J" horiz-adv-x="1036" d="M51 162q0 41 30 71q28 26 62 26t84 -30q71 -45 157 -45q126 0 195 75.5t69 219.5v837q0 42 3 60.5t14 39.5q27 50 94 50t94 -50q11 -21 13.5 -39t2.5 -61v-855q0 -146 -66 -255t-174.5 -163.5t-244.5 -54.5q-165 0 -281 83q-52 39 -52 91z" />
<glyph unicode="K" horiz-adv-x="1325" d="M189 142v1174q0 42 3 60.5t14 39.5q27 50 94 50t94 -50q11 -21 14 -39.5t3 -60.5v-586l552 670q30 36 51 51t50 15q39 0 69 -25q39 -33 39 -80q0 -22 -10.5 -41.5t-38.5 -53.5l-310 -375l399 -702q35 -61 35 -95q0 -54 -54 -87q-25 -15 -59 -15q-37 0 -60.5 22t-49.5 68 l-365 642l-248 -299v-283q0 -42 -3 -60.5t-14 -39.5q-27 -50 -94 -50t-94 50q-11 21 -14 39.5t-3 60.5z" />
<glyph unicode="L" horiz-adv-x="1172" d="M189 135v1181q0 42 3 60.5t14 39.5q27 50 94 50t94 -50q11 -21 14 -39.5t3 -60.5v-1119h575q61 0 90 -15q45 -25 45 -84t-45 -84q-27 -14 -90 -14h-661q-72 0 -104 32t-32 103z" />
<glyph unicode="M" horiz-adv-x="1665" d="M189 142v1188q0 70 33 104q32 32 81 32q39 0 63 -14q30 -18 54 -67l414 -843l411 843q24 49 54 67q25 14 63 14q49 0 81 -32q33 -34 33 -104v-1188q0 -42 -3 -60.5t-14 -39.5q-27 -50 -94 -50t-94 50q-11 21 -14 39.5t-3 60.5v833l-308 -645q-20 -42 -45.5 -62t-66.5 -20 t-67 20.5t-47 61.5l-309 645v-833q0 -42 -3 -60.5t-14 -39.5q-27 -50 -94 -50t-94 50q-11 21 -14 39.5t-3 60.5z" />
<glyph unicode="N" horiz-adv-x="1477" d="M189 142v1183q0 75 32 107q34 34 84 34q37 0 65.5 -22.5t63.5 -74.5l633 -935v882q0 43 2.5 61t13.5 39q27 50 95 50q67 0 94 -50q11 -21 13.5 -39t2.5 -61v-1184q0 -73 -32 -105q-35 -35 -84 -35q-37 0 -65.5 22.5t-63.5 74.5l-632 935v-882q0 -42 -3 -60.5t-14 -39.5 q-27 -50 -94 -50t-94 50q-11 21 -14 39.5t-3 60.5z" />
<glyph unicode="O" horiz-adv-x="1325" d="M138 729q0 108 2 167.5t9.5 130.5t23 115.5t43 91t69.5 88.5q148 148 378 148q228 0 376 -148q42 -42 69.5 -88.5t43.5 -91t23.5 -115t9.5 -131t2 -167.5t-2 -167.5t-9.5 -131t-23.5 -115t-43.5 -91t-69.5 -88.5q-148 -148 -376 -148q-230 0 -378 148q-42 42 -69.5 88.5 t-43 91t-23 115.5t-9.5 130.5t-2 167.5zM359 729q0 -221 16 -308.5t70 -144.5q86 -92 218 -92q130 0 217 92q53 57 69.5 145t16.5 308t-16.5 308.5t-69.5 145.5q-86 91 -217 91q-133 0 -218 -91q-54 -57 -70 -145t-16 -309z" />
<glyph unicode="P" horiz-adv-x="1287" d="M189 142v1181q0 71 32 103t104 32h417q211 0 339 -124.5t128 -317.5t-128 -317t-339 -124h-331v-433q0 -42 -3 -60.5t-14 -39.5q-27 -50 -94 -50t-94 50q-11 21 -14 39.5t-3 60.5zM411 772h319q118 0 188 65t70 179q0 116 -69.5 181t-188.5 65h-319v-490z" />
<glyph unicode="Q" horiz-adv-x="1325" d="M138 729q0 108 2 167.5t9.5 130.5t23 115.5t43 91t69.5 88.5q148 148 378 148q228 0 376 -148q42 -42 69.5 -88.5t43.5 -91t23.5 -115t9.5 -131t2 -167.5q0 -226 -16 -335.5t-78 -195.5l73 -74q39 -39 46 -65q3 -11 3 -21q0 -31 -27 -58q-28 -28 -60 -28q-10 0 -20 3 q-26 7 -65 46l-75 76q-130 -89 -305 -89q-230 0 -378 148q-42 42 -69.5 88.5t-43 91t-23 115.5t-9.5 130.5t-2 167.5zM359 729q0 -221 16 -308.5t70 -144.5q86 -92 218 -92q86 0 149 48l-98 100q-25 24 -34 36t-13 28q-3 11 -3 22q0 31 27 58q28 28 60 28q10 0 20 -3 q26 -7 65 -46l87 -87q27 53 35 131t8 230q0 220 -16.5 308.5t-69.5 145.5q-86 91 -217 91q-133 0 -218 -91q-54 -57 -70 -145t-16 -309z" />
<glyph unicode="R" horiz-adv-x="1344" d="M189 142v1181q0 71 32 103t104 32h430q205 0 328.5 -119t123.5 -307q0 -150 -80 -250.5t-208 -136.5l261 -456q34 -59 34 -95q0 -54 -54 -87q-25 -15 -59 -15q-37 0 -60.5 22t-49.5 68l-304 532h-276v-472q0 -42 -3 -60.5t-14 -39.5q-27 -50 -94 -50t-94 50 q-11 21 -14 39.5t-3 60.5zM411 803h327q112 0 180 60.5t68 166.5q0 107 -68 169.5t-180 62.5h-327v-459z" />
<glyph unicode="S" horiz-adv-x="1210" d="M85 215q0 42 31 73q26 26 64 26q43 0 94 -36q73 -51 144.5 -72.5t166.5 -21.5q144 0 222.5 59t78.5 167q0 101 -58 151q-53 48 -158 62l-173 24q-174 25 -276 118q-107 98 -107 279q0 193 131 309.5t356 116.5q102 0 176.5 -19t166.5 -67q89 -47 89 -111q0 -39 -25 -68 q-26 -31 -68 -31q-37 0 -89 31q-65 40 -123 56t-135 16q-126 0 -195 -62t-69 -164q0 -91 53 -136q55 -49 160 -65l174 -27q99 -15 160.5 -40t109.5 -68q119 -110 119 -299q0 -198 -145 -313t-379 -115q-127 0 -218 23.5t-175 74.5q-58 34 -80.5 62t-22.5 67z" />
<glyph unicode="T" horiz-adv-x="1142" d="M51 1360q0 59 45 84q27 14 90 14h770q64 0 91 -14q45 -25 45 -84t-45 -84q-27 -14 -91 -14h-274v-1120q0 -43 -2.5 -61t-13.5 -39q-27 -50 -95 -50q-67 0 -94 50q-11 21 -13.5 39t-2.5 61v1120h-275q-63 0 -90 14q-45 25 -45 84z" />
<glyph unicode="U" horiz-adv-x="1378" d="M167 492v824q0 43 2.5 61t13.5 39q27 50 95 50q67 0 94 -50q11 -21 13.5 -39t2.5 -61v-814q0 -146 82 -232t219 -86t219 86t82 232v814q0 42 3 60.5t14 39.5q27 50 94 50t94 -50q11 -21 13.5 -39t2.5 -61v-824q0 -223 -148.5 -363.5t-373.5 -140.5t-373.5 140.5 t-148.5 363.5z" />
<glyph unicode="V" horiz-adv-x="1138" d="M39 1385q6 39 38.5 60t67.5 21q37 0 63 -23q25 -22 45 -84l316 -973l317 973q20 62 45 84q26 23 62 23q35 0 68 -21t39 -60q1 -6 1 -14q0 -30 -16 -79l-395 -1188q-20 -62 -45 -84q-29 -28 -76 -28q-46 0 -75 28q-25 22 -45 84l-396 1188q-15 48 -15 78q0 8 1 15z" />
<glyph unicode="W" horiz-adv-x="1771" d="M62 1395q7 30 37 50.5t66 20.5q45 0 71 -28q20 -22 36 -88l234 -938l266 953q14 50 38 74q27 26 76 26t76 -26q23 -23 37 -74l267 -953l233 938q16 64 37 88q26 28 71 28q36 0 65.5 -20.5t36.5 -50.5q2 -9 2 -22q0 -28 -11 -74l-295 -1183q-17 -68 -51 -97 q-34 -27 -79 -27t-79 27q-32 27 -51 97l-259 923l-259 -923q-19 -69 -52 -97q-35 -27 -78 -27q-45 0 -79 27q-34 29 -51 97l-295 1183q-12 48 -12 76q0 12 2 20z" />
<glyph unicode="X" horiz-adv-x="1140" d="M113 189l321 560l-299 520q-34 59 -35 91v4q0 54 55 87q25 15 59 15q37 0 60.5 -22t49.5 -68l246 -441l247 441q26 46 49.5 68t60.5 22q34 0 59 -15q54 -33 54 -87v-4q-1 -34 -34 -91l-299 -519l321 -561q34 -59 35 -91v-4q0 -54 -54 -87q-25 -15 -60 -15q-37 0 -60 22 t-49 68l-270 478l-269 -478q-26 -46 -49.5 -68t-60.5 -22q-34 0 -59 15q-54 33 -54 87q0 34 35 95z" />
<glyph unicode="Y" horiz-adv-x="1071" d="M102 1454q24 12 53 12q27 0 50 -15q15 -10 25 -24.5t29 -52.5l277 -554l276 554q19 38 29 52.5t25 24.5q22 15 50 15q29 0 53 -12q55 -27 57 -82v-2q0 -34 -28 -89l-352 -700v-439q0 -43 -2.5 -61t-13.5 -39q-27 -50 -94 -50q-68 0 -95 50q-11 21 -13.5 39t-2.5 61v439 l-352 700q-28 55 -28 89q0 56 57 84z" />
<glyph unicode="Z" horiz-adv-x="1141" d="M89 114q0 37 38 98l645 1050h-519q-63 0 -90 14q-45 25 -45 84t45 84q27 14 90 14h643q85 0 117 -33q33 -33 33 -80q0 -40 -37 -99l-647 -1049h549q61 0 90 -15q46 -26 46 -84t-46 -84q-27 -14 -90 -14h-672q-84 0 -117 33t-33 81z" />
<glyph unicode="[" horiz-adv-x="709" d="M176 -24v1506q0 68 30 98t98 30h199q60 0 85 -15q43 -25 43 -79q0 -55 -43 -80q-27 -15 -85 -15h-118v-1384h118q62 0 85 -14q43 -25 43 -80t-43 -80q-27 -15 -85 -15h-199q-68 0 -98 30t-30 98z" />
<glyph unicode="\" horiz-adv-x="781" d="M33 1558q8 25 35.5 43.5t61.5 18.5q43 0 64 -25t37 -75l506 -1515q22 -68 12 -100q-8 -25 -36 -44t-62 -19q-43 0 -64 25.5t-37 75.5l-506 1514q-22 67 -11 101z" />
<glyph unicode="]" horiz-adv-x="709" d="M79 -57q0 55 43 80q23 14 85 14h118v1384h-118q-58 0 -85 15q-43 25 -43 80q0 54 43 79q25 15 85 15h199q68 0 98 -30t30 -98v-1506q0 -68 -30 -98t-98 -30h-199q-58 0 -85 15q-43 25 -43 80z" />
<glyph unicode="^" horiz-adv-x="1084" d="M147 794q0 28 27 83l240 480q14 28 23 42t24.5 32.5t35.5 26.5t46 8t45.5 -8t35 -26.5t24.5 -32.5t23 -42l239 -480q27 -55 27 -83q0 -38 -30 -65.5t-68 -27.5q-27 0 -49 16q-27 20 -54 73l-194 389l-194 -389q-28 -54 -53 -73q-22 -16 -49 -16q-38 0 -68.5 27.5 t-30.5 65.5z" />
<glyph unicode="_" horiz-adv-x="1170" d="M35 -289q0 48 37 68q22 12 72 12h882q51 0 73 -12q37 -20 37 -68q0 -47 -37 -67q-23 -13 -73 -13h-882q-49 0 -72 13q-37 20 -37 67z" />
<glyph unicode="`" horiz-adv-x="1101" d="M311 1508q-3 50 44 79q26 16 51 16t48 -17q20 -14 45 -56l95 -153q31 -50 32 -75q3 -50 -44 -79q-26 -16 -51 -16t-48 17q-20 14 -45 56l-95 153q-31 50 -32 75z" />
<glyph unicode="a" horiz-adv-x="1085" d="M85 305q0 135 93.5 218t265.5 83h276v65q0 103 -52 152.5t-165 49.5q-109 0 -199 -69q-38 -28 -76 -28q-37 0 -60 28q-25 28 -25 64q0 63 98 120q109 63 264 63q209 0 317 -90.5t108 -267.5v-559q0 -64 -16 -94q-25 -48 -89 -48q-47 0 -75 30q-22 25 -24 74 q-62 -60 -123 -83.5t-156 -23.5q-189 0 -279 94q-83 85 -83 222zM289 308q0 -146 195 -146q64 0 108.5 12t81.5 47q46 43 46 155v82h-246q-91 0 -138 -38.5t-47 -111.5z" />
<glyph unicode="b" horiz-adv-x="1131" d="M166 135v1189q0 62 15 93q25 49 89 49t89 -49q16 -33 16 -93v-390q55 65 119.5 91t152.5 26q159 0 252 -93q68 -70 91.5 -178t23.5 -260q0 -153 -23.5 -261.5t-91.5 -178.5q-43 -43 -110 -67.5t-144 -24.5q-86 0 -151 26.5t-120 91.5q-2 -50 -19 -73q-28 -41 -85 -41 q-59 0 -86 44q-18 31 -18 99zM374 519q0 -61 4 -107t17.5 -92.5t36.5 -76.5t63 -48.5t95 -18.5t94.5 18.5t62.5 48.5t36.5 76.5t17.5 92.5t4 107t-4 107t-17.5 92.5t-36.5 76.5t-62.5 48.5t-94.5 18.5t-95 -18.5t-63 -48.5t-36.5 -76.5t-17.5 -92.5t-4 -107z" />
<glyph unicode="c" horiz-adv-x="992" d="M113 519q0 141 38 246.5t104 166t146 90t172 29.5q125 0 228 -66q49 -31 75 -60t26 -65t-30 -68q-27 -27 -64 -27q-35 0 -83 40q-71 57 -152 57q-121 0 -189 -89q-62 -81 -62 -254t62 -253q68 -90 189 -90q78 0 152 58q50 40 83 40q37 0 64 -27q30 -32 30 -69 q0 -35 -27 -64.5t-74 -60.5q-102 -65 -228 -65q-73 0 -138.5 17.5t-125 58t-102.5 100.5t-68.5 151t-25.5 204z" />
<glyph unicode="d" horiz-adv-x="1131" d="M118 520q0 152 23 260t91 178q93 93 252 93q88 0 153 -26t120 -91v390q0 62 15 93q24 49 89 49t89 -49q16 -33 16 -93v-1189q0 -66 -19 -99q-27 -44 -86 -44q-57 0 -85 41q-16 21 -18 73q-55 -65 -120 -91.5t-152 -26.5q-77 0 -144 24.5t-110 67.5q-68 70 -91 178 t-23 262zM327 519q0 -61 4 -107t17.5 -92.5t36.5 -76.5t62.5 -48.5t94.5 -18.5t95 18.5t63 48.5t36.5 76.5t17.5 92.5t4 107t-4 107t-17.5 92.5t-36.5 76.5t-63 48.5t-95 18.5t-94.5 -18.5t-62.5 -48.5t-36.5 -76.5t-17.5 -92.5t-4 -107z" />
<glyph unicode="e" horiz-adv-x="1100" d="M113 519q0 253 119 392.5t321 139.5q199 0 316.5 -131t122.5 -341v-8q0 -58 -28 -86q-13 -13 -31 -19t-28.5 -6.5t-33.5 -0.5h-552q0 -135 69.5 -214t197.5 -79q118 0 199 65q47 38 85 38q32 0 59 -27t27 -62q0 -59 -104 -126q-101 -66 -271 -66q-101 0 -183 28 t-147.5 88.5t-101.5 165.5t-36 249zM319 604h467q-6 91 -28 141q-27 61 -80.5 96.5t-124.5 35.5q-73 0 -126.5 -35.5t-80.5 -96.5q-24 -55 -27 -141z" />
<glyph unicode="f" horiz-adv-x="685" d="M54 958q0 48 37 68q22 12 73 12h48v143q0 124 71.5 205.5t210.5 81.5h20q59 0 88 -16q42 -22 42 -73t-42 -73q-24 -13 -76 -15q-105 -3 -105 -120v-133h114q50 0 72 -12q37 -20 37 -68q0 -47 -37 -67q-22 -12 -72 -12h-114v-745q0 -62 -15 -93q-24 -49 -90 -49 q-64 0 -89 49q-15 31 -15 93v745h-48q-51 0 -73 12q-37 20 -37 67z" />
<glyph unicode="g" horiz-adv-x="1125" d="M118 539q0 151 23.5 252t92.5 170q90 90 250 90q85 0 148.5 -26.5t119.5 -90.5q2 49 18 72q28 41 85 41q59 0 86 -45q18 -31 18 -99v-897q0 -193 -121 -315t-325 -122q-148 0 -246 54q-106 60 -106 123q0 39 27 65t58 26q32 0 94 -40q78 -51 167 -51q85 0 141.5 38 t79.5 95.5t23 130.5v133q-55 -65 -120 -91.5t-149 -26.5q-156 0 -248 92q-69 69 -92.5 170t-23.5 252zM327 539q0 -55 4 -97.5t17 -87.5t35.5 -74t62.5 -48t94 -19t93.5 19t62 48t35.5 74.5t16.5 87t3.5 97.5t-3.5 97.5t-16.5 87t-35.5 74t-62 47.5t-93.5 19t-94 -19 t-62.5 -47.5t-35.5 -73.5t-17 -87.5t-4 -97.5z" />
<glyph unicode="h" horiz-adv-x="1164" d="M166 134v1190q0 62 15 93q25 49 89 49t89 -49q16 -33 16 -93v-390q106 117 272 117q159 0 256 -95q106 -103 106 -292v-530q0 -60 -16 -93q-25 -49 -89 -49t-89 49q-15 31 -15 93v499q0 116 -58 172.5t-153 56.5t-154.5 -57t-59.5 -172v-499q0 -60 -16 -93 q-25 -49 -89 -49t-89 49q-15 31 -15 93z" />
<glyph unicode="i" horiz-adv-x="540" d="M144 1377q0 53 37 89.5t89 36.5t89 -36.5t37 -89.5t-37 -89.5t-89 -36.5t-89 36.5t-37 89.5zM166 134v770q0 62 15 93q25 50 89 50t89 -50q16 -33 16 -93v-770q0 -60 -16 -93q-25 -49 -89 -49t-89 49q-15 31 -15 93z" />
<glyph unicode="j" horiz-adv-x="540" d="M-57 -335q0 52 42 74q22 12 75 14q106 3 106 120v1031q0 62 15 93q25 50 89 50t89 -50q16 -33 16 -93v-1040q0 -124 -71.5 -206t-210.5 -82h-20q-59 0 -88 16q-42 22 -42 73zM144 1377q0 53 37 89.5t89 36.5t89 -36.5t37 -89.5t-37 -89.5t-89 -36.5t-89 36.5t-37 89.5z " />
<glyph unicode="k" horiz-adv-x="1064" d="M166 134v1190q0 62 15 93q25 49 89 49t89 -49q16 -33 16 -93v-765l375 427q30 34 50.5 47.5t44.5 13.5q36 0 64 -25q33 -29 33 -68q0 -40 -48 -94l-214 -244l277 -438q36 -57 36 -88q0 -51 -49 -81q-27 -17 -57 -17q-33 0 -54 18t-48 61l-251 401l-159 -184v-154 q0 -60 -16 -93q-25 -49 -89 -49t-89 49q-15 31 -15 93z" />
<glyph unicode="l" horiz-adv-x="627" d="M161 288v1038q0 62 15 93q24 49 89 49t89 -49q16 -33 16 -93v-1029q0 -117 105 -120q54 -2 76 -14q42 -22 42 -74q0 -51 -42 -73q-29 -16 -88 -16h-21q-139 0 -210 82t-71 206z" />
<glyph unicode="m" horiz-adv-x="1796" d="M166 134v769q0 68 18 99q27 45 86 45q57 0 85 -41q17 -25 19 -69q52 55 123.5 84.5t149.5 29.5q195 0 295 -152q125 152 326 152q79 0 147.5 -25t114.5 -70q110 -107 110 -292v-530q0 -62 -15 -93q-25 -49 -89 -49t-89 49q-15 31 -15 93v499q0 116 -57.5 172.5 t-151.5 56.5q-91 0 -153 -56t-62 -163v-509q0 -60 -16 -93q-24 -49 -89 -49t-89 49q-15 31 -15 93v499q0 116 -57.5 172.5t-151.5 56.5t-154.5 -57.5t-60.5 -171.5v-499q0 -60 -16 -93q-25 -49 -89 -49t-89 49q-15 31 -15 93z" />
<glyph unicode="n" horiz-adv-x="1163" d="M166 134v769q0 68 18 99q27 45 86 45q57 0 85 -41q17 -25 19 -69q108 114 273 114q158 0 256 -95q105 -102 105 -292v-530q0 -60 -16 -93q-24 -49 -89 -49t-89 49q-15 31 -15 93v499q0 116 -57.5 172.5t-151.5 56.5t-154.5 -57.5t-60.5 -171.5v-499q0 -60 -16 -93 q-25 -49 -89 -49t-89 49q-15 31 -15 93z" />
<glyph unicode="o" horiz-adv-x="1099" d="M118 519q0 144 25.5 240t96.5 169q119 123 310 123t310 -123q71 -73 96.5 -169.5t25.5 -239.5t-25.5 -239t-96.5 -169q-119 -123 -310 -123t-310 123q-71 73 -96.5 168.5t-25.5 239.5zM327 519q0 -101 14.5 -171t56.5 -112q58 -60 152 -60q92 0 151 60q43 43 57.5 113 t14.5 170t-14.5 170.5t-57.5 113.5q-58 59 -151 59q-94 0 -152 -59q-42 -43 -56.5 -113t-14.5 -171z" />
<glyph unicode="p" horiz-adv-x="1131" d="M166 -285v1189q0 69 18 100q27 44 86 44q57 0 85 -41q17 -24 19 -74q56 66 120 92.5t151 26.5q77 0 144 -25t110 -68q68 -70 91.5 -178.5t23.5 -261.5q0 -152 -23.5 -260t-91.5 -178q-93 -93 -252 -93q-88 0 -152.5 26t-119.5 91v-390q0 -60 -16 -93q-25 -49 -89 -49 t-89 49q-15 31 -15 93zM374 520q0 -61 4 -107t17.5 -93t36.5 -76.5t63 -48.5t95 -19t94.5 19t62.5 48.5t36.5 76.5t17.5 93t4 107t-4 107t-17.5 92.5t-36.5 76.5t-62.5 48.5t-94.5 18.5t-95 -18.5t-63 -48.5t-36.5 -76.5t-17.5 -92.5t-4 -107z" />
<glyph unicode="q" horiz-adv-x="1131" d="M118 519q0 154 23 262t91 178q43 43 110 68t144 25q86 0 151.5 -27t120.5 -92q2 53 18 74q28 41 85 41q59 0 86 -44q19 -33 19 -100v-1189q0 -60 -16 -93q-24 -49 -89 -49t-89 49q-15 31 -15 93v390q-54 -64 -119.5 -90t-153.5 -26q-160 0 -252 92q-68 70 -91 178 t-23 260zM327 520q0 -61 4 -107t17.5 -92.5t36.5 -76.5t62.5 -48.5t94.5 -18.5t95 18.5t63 48.5t36.5 76.5t17.5 92.5t4 107t-4 107t-17.5 92.5t-36.5 76.5t-63 48.5t-95 18.5t-94.5 -18.5t-62.5 -48.5t-36.5 -76.5t-17.5 -92.5t-4 -107z" />
<glyph unicode="r" horiz-adv-x="901" d="M166 134v769q0 68 18 99q27 45 86 45q57 0 85 -41q17 -24 19 -76q44 56 114 88.5t150 32.5q110 0 182 -49q63 -42 63 -94q0 -44 -31 -75q-29 -29 -72 -29q-32 0 -81 27q-57 31 -112 31q-92 0 -152 -63t-60 -169v-496q0 -60 -16 -93q-25 -49 -89 -49t-89 49q-15 31 -15 93 z" />
<glyph unicode="s" horiz-adv-x="1022" d="M82 169q0 46 34 72q24 21 57 21q30 0 78 -30q107 -69 251 -69q104 0 166 37t62 109q0 110 -140 123l-167 15q-307 27 -307 285q0 148 111.5 233.5t280.5 85.5q155 0 279 -58q47 -22 68 -44q19 -23 19 -57q0 -35 -25 -62q-26 -26 -62 -26q-22 0 -67 21q-113 55 -216 55 q-90 0 -138.5 -38t-48.5 -99q0 -56 35.5 -84t108.5 -34l164 -16q308 -29 308 -293q0 -157 -119.5 -242.5t-312.5 -85.5q-223 0 -362 94q-57 40 -57 87z" />
<glyph unicode="t" horiz-adv-x="719" d="M51 958q0 48 37 68q22 12 73 12h48v163q0 62 15 93q24 49 89 49t89 -49q16 -33 16 -93v-163h112q51 0 73 -12q37 -20 37 -68q0 -47 -37 -67q-22 -12 -73 -12h-112v-582q0 -117 105 -120q54 -2 76 -14q42 -22 42 -74q0 -51 -42 -73q-29 -16 -88 -16h-21q-139 0 -210 82 t-71 206v591h-48q-51 0 -73 12q-37 20 -37 67z" />
<glyph unicode="u" horiz-adv-x="1163" d="M156 375v529q0 62 15 93q25 50 89 50t89 -50q16 -33 16 -93v-498q0 -116 57.5 -173t150.5 -57q94 0 154.5 58t60.5 172v498q0 60 16 93q25 50 89 50t89 -50q15 -31 15 -93v-769q0 -68 -18 -99q-27 -44 -86 -44q-57 0 -85 41q-16 23 -18 68q-107 -113 -274 -113 q-159 0 -256 94q-104 101 -104 293z" />
<glyph unicode="v" horiz-adv-x="919" d="M54 984q8 25 36 44t62 19q43 0 64 -25.5t37 -75.5l207 -623l207 623q16 50 37 75.5t64 25.5q34 0 61.5 -19t35.5 -44q4 -11 4 -26q0 -30 -15 -74l-265 -775q-21 -64 -51 -91q-32 -26 -78 -26t-78 26q-30 27 -51 91l-265 775q-15 47 -15 76q0 14 3 24z" />
<glyph unicode="w" horiz-adv-x="1501" d="M61 976q7 30 35.5 50.5t63.5 20.5q38 0 66 -28q19 -19 36 -79l179 -630l188 614q22 75 51 97q29 26 71 26q41 0 70 -26q29 -22 51 -97l188 -614l179 630q17 60 36 79q28 28 66 28q35 0 63.5 -20.5t35.5 -50.5q2 -9 2 -20q0 -27 -12 -70l-228 -765q-24 -80 -53 -102 q-32 -27 -78 -27q-45 0 -77 27q-29 22 -53 102l-190 613l-191 -613q-24 -80 -53 -102q-32 -27 -77 -27q-46 0 -78 27q-29 22 -53 102l-227 765q-13 45 -13 72q0 10 2 18z" />
<glyph unicode="x" horiz-adv-x="921" d="M78 90q0 31 36 88l221 343l-216 339q-36 57 -36 88q0 51 49 81q28 18 57 18q33 0 54 -18t48 -61l171 -280l169 280q27 43 47.5 61t53.5 18q30 0 58 -18q49 -30 49 -81q0 -31 -36 -88l-215 -338l220 -344q36 -57 36 -88q0 -51 -49 -81q-27 -17 -58 -17q-33 0 -53.5 18 t-47.5 61l-174 286l-176 -286q-27 -43 -48 -61t-54 -18q-30 0 -57 17q-49 30 -49 81z" />
<glyph unicode="y" horiz-adv-x="919" d="M54 984q8 25 36 44t62 19q43 0 64 -25.5t37 -75.5l205 -636l209 636q16 50 37 75.5t64 25.5q34 0 61.5 -19t35.5 -44q4 -12 4 -27q0 -30 -15 -73l-378 -1092q-29 -83 -76 -129q-78 -77 -203 -77q-68 0 -97 25q-29 26 -29 71q0 50 31 73q26 20 70 20q49 0 81 24.5t53 85.5 l50 153l-290 846q-15 47 -15 76q0 14 3 24z" />
<glyph unicode="z" horiz-adv-x="948" d="M76 91q0 27 8.5 47.5t33.5 54.5l476 657h-365q-60 0 -85 14q-43 25 -43 80t43 80q23 14 85 14h509q60 0 90 -17q42 -24 42 -73q0 -26 -9 -47.5t-33 -53.5l-478 -659h394q62 0 85 -14q43 -25 43 -80t-43 -80q-25 -14 -85 -14h-537q-61 0 -90 17q-41 22 -41 74z" />
<glyph unicode="{" horiz-adv-x="831" d="M86 729q0 41 26 67q19 20 84 29q41 6 70 35q36 36 36 123v342q0 74 17 124t57 91q67 69 199 69h43q59 0 87 -14q20 -9 32.5 -31t12.5 -50q0 -58 -43 -79q-27 -15 -71 -15q-68 -1 -93 -26q-32 -31 -32 -131v-329q0 -47 -11 -83t-33 -59t-42 -36.5t-49 -26.5 q29 -13 49 -26.5t42 -36.5t33 -59t11 -83v-328q0 -100 32 -131q26 -26 93 -27q46 0 71 -14q43 -22 43 -80q0 -28 -12.5 -50t-32.5 -31q-28 -14 -87 -14h-43q-131 0 -199 69q-40 41 -57 91t-17 124v342q0 87 -36 123q-29 29 -70 35q-64 9 -84 30q-26 26 -26 66z" />
<glyph unicode="|" horiz-adv-x="692" d="M242 -17v1493q0 62 15 93q25 49 89 49t89 -49q16 -33 16 -93v-1493q0 -61 -16 -94q-25 -49 -89 -49t-89 49q-15 31 -15 94z" />
<glyph unicode="}" horiz-adv-x="831" d="M82 -56q0 58 43 80q25 14 71 14q67 1 93 27q32 31 32 131v328q0 47 11 83t33 59t42 36.5t49 26.5q-29 13 -49 26.5t-42 36.5t-33 59t-11 83v329q0 100 -32 131q-25 25 -93 26q-44 0 -71 15q-43 21 -43 79q0 28 12.5 50t32.5 31q28 14 86 14h43q132 0 200 -69 q40 -41 56.5 -90.5t16.5 -124.5v-342q0 -87 36 -123q29 -29 71 -35q65 -9 84 -29q25 -25 25 -67q0 -41 -25 -66q-20 -21 -84 -30q-42 -6 -71 -35q-36 -36 -36 -123v-342q0 -75 -16.5 -124.5t-56.5 -90.5q-68 -69 -200 -69h-43q-58 0 -86 14q-20 9 -32.5 31t-12.5 50z" />
<glyph unicode="~" horiz-adv-x="1174" d="M98 538q0 47 55 97q59 54 113 74.5t123 20.5q94 0 228 -65q100 -50 164 -50q37 0 67.5 13t67.5 45q35 28 69 28q40 0 67 -32q24 -29 24 -62q0 -48 -54 -97q-59 -54 -113 -74.5t-124 -20.5q-94 0 -228 65q-98 49 -163 49q-38 0 -68 -12t-68 -44q-36 -30 -68 -30 q-40 0 -67 33q-25 28 -25 62z" />
<glyph unicode="&#xa1;" horiz-adv-x="680" d="M174 911q0 55 39 94t94 39t94 -39t39 -94t-39 -94t-94 -39t-94 39t-39 94zM197 -278v740q0 43 2.5 61t13.5 39q27 50 94 50t94 -50q11 -21 14 -39.5t3 -60.5v-740q0 -42 -3 -60.5t-14 -39.5q-27 -50 -94 -50t-94 50q-11 21 -13.5 39t-2.5 61z" />
<glyph unicode="&#xa2;" horiz-adv-x="992" d="M113 750q0 122 28.5 217.5t80 157t115.5 98t141 50.5v65q0 58 15 85q25 43 79 43q55 0 80 -43q15 -25 15 -85v-65q67 -14 134 -58q49 -32 75 -60t26 -64q0 -37 -30 -69q-27 -27 -64 -27q-35 0 -83 40q-36 27 -65 40v-651q26 12 65 41q50 40 83 40q36 0 64 -28 q30 -32 30 -68q0 -35 -27 -64.5t-74 -60.5q-70 -45 -134 -58v-106q0 -60 -15 -85q-25 -43 -80 -43q-54 0 -79 43q-15 27 -15 85v106q-77 14 -141 50.5t-115.5 98t-80 157.5t-28.5 218zM322 750q0 -92 14.5 -150.5t47.5 -102.5q42 -56 100 -76v657q-61 -21 -100 -74 q-62 -81 -62 -254z" />
<glyph unicode="&#xa3;" horiz-adv-x="1188" d="M92 720q0 48 37 68q22 13 74 13h47v196q0 146 65.5 255t174.5 163.5t245 54.5q169 0 282 -79q66 -47 66 -106q0 -43 -27 -72q-24 -26 -58 -26q-30 0 -80 30q-48 31 -88.5 44t-93.5 13q-125 0 -195 -75.5t-70 -217.5v-180h188q51 0 73 -13q37 -20 37 -68t-37 -68 q-20 -12 -73 -12h-188v-443h493q61 0 90 -15q45 -25 45 -84t-45 -84q-27 -14 -90 -14h-579q-71 0 -103 32t-32 103v505h-47q-54 0 -74 12q-37 20 -37 68z" />
<glyph unicode="&#xa4;" horiz-adv-x="1360" d="M151 158q7 28 52 73l86 86q-78 115 -78 254q0 140 77 253l-85 86q-44 44 -52 74q-13 50 26 89q41 41 91 28q28 -7 73 -52l85 -86q110 75 254 75t254 -75l86 86q45 45 73 52q50 13 91 -28q39 -39 26 -89q-8 -30 -52 -74l-86 -86q77 -116 77 -253q0 -139 -78 -254l87 -86 q45 -45 52 -73q13 -50 -26 -89q-41 -41 -91 -28q-28 7 -73 52l-87 86q-113 -77 -253 -77t-253 77l-86 -86q-45 -45 -73 -52q-50 -13 -91 28q-39 39 -26 89zM401 570q0 -115 81.5 -196.5t197.5 -81.5t197 81t81 197t-81.5 197.5t-196.5 81.5q-116 0 -197.5 -81.5 t-81.5 -197.5z" />
<glyph unicode="&#xa5;" horiz-adv-x="1095" d="M69 1372q2 55 57 82q24 12 52 12t50 -15q24 -16 55 -77l265 -535l265 535q19 38 29 52.5t25 24.5q23 15 51 15t52 -12q55 -27 57 -82q1 -34 -28 -91l-217 -434h97q50 0 72 -12q37 -20 37 -68t-37 -68q-22 -12 -72 -12h-177l-44 -88v-93h221q50 0 72 -12q37 -20 37 -68 t-37 -68q-22 -12 -72 -12h-221v-204q0 -43 -2.5 -61t-13.5 -39q-27 -50 -94 -50t-94 50q-11 21 -14 39.5t-3 60.5v204h-221q-51 0 -73 12q-37 20 -37 68t37 68q22 12 73 12h221v93l-44 88h-177q-51 0 -73 12q-37 20 -37 68t37 68q22 12 73 12h97l-217 434q-28 55 -27 91z " />
<glyph unicode="&#xa6;" horiz-adv-x="692" d="M242 -17v448q0 62 15 93q25 49 89 49t89 -49q16 -33 16 -93v-448q0 -61 -16 -94q-25 -49 -89 -49t-89 49q-15 31 -15 94zM242 1027v449q0 62 15 93q25 49 89 49t89 -49q16 -33 16 -93v-449q0 -60 -16 -93q-25 -49 -89 -49t-89 49q-15 31 -15 93z" />
<glyph unicode="&#xa7;" horiz-adv-x="1116" d="M151 523q0 113 59.5 198.5t140.5 126.5q-82 40 -127.5 105.5t-45.5 171.5q0 148 102.5 246.5t278.5 98.5q221 0 325 -140q53 -72 53 -147q0 -36 -16 -64q-23 -43 -83 -43q-46 0 -74 31q-19 22 -25 56q-22 129 -180 129q-85 0 -132.5 -41t-47.5 -118q0 -66 39.5 -107 t123.5 -67l129 -39q295 -89 295 -376q0 -114 -59 -199t-139 -127q181 -78 181 -287q0 -112 -55 -196t-143 -125t-194 -41q-201 0 -310 122q-73 81 -73 170q0 39 17 66q25 42 82 42q44 0 70 -26q21 -21 28 -62q23 -130 186 -130q88 0 137.5 45t49.5 127q0 130 -160 180 l-130 40q-153 46 -228 139t-75 241zM355 534q0 -102 57 -162q56 -59 146 -59q91 0 147 59t56 162q0 102 -56 161t-147 59q-90 0 -146 -59q-57 -60 -57 -161z" />
<glyph unicode="&#xa8;" horiz-adv-x="1101" d="M211 1346q0 47 34 80.5t81 33.5t81.5 -33.5t34.5 -80.5t-34.5 -82t-81.5 -35t-81 35t-34 82zM662 1346q0 47 34.5 80.5t81.5 33.5t81 -33.5t34 -80.5t-34 -82t-81 -35t-81.5 35t-34.5 82z" />
<glyph unicode="&#xa9;" horiz-adv-x="1765" d="M141 729q0 202 99.5 372.5t270 269.5t372.5 99q151 0 288.5 -58.5t236.5 -157.5t157.5 -236.5t58.5 -288.5t-58.5 -288.5t-157.5 -236.5t-236.5 -157.5t-288.5 -58.5q-202 0 -372.5 99t-270 269.5t-99.5 372.5zM283 729q0 -168 80 -308t217.5 -220.5t302.5 -80.5 q123 0 234 47.5t191 128.5t127 194t47 239t-47 239t-127 194t-191 128.5t-234 47.5q-165 0 -302.5 -80.5t-217.5 -220.5t-80 -308zM557 729q0 176 92.5 277.5t248.5 101.5q125 0 199 -70q37 -35 37 -64q0 -25 -18 -43q-19 -19 -44 -19q-23 0 -60 28q-52 43 -114 43 q-102 0 -152 -69t-50 -185t50 -185t152 -69q62 0 114 43q37 28 60 28q25 0 44 -19q18 -18 18 -43q0 -29 -37 -64q-74 -70 -199 -70q-156 0 -248.5 101.5t-92.5 277.5z" />
<glyph unicode="&#xaa;" horiz-adv-x="924" d="M106 877q0 102 74 167t210 65h221v61q0 84 -43.5 121t-136.5 37q-53 0 -88 -14t-72 -46q-29 -25 -61 -25q-26 0 -44 19q-19 22 -19 50q0 51 86 104q79 48 198 48q169 0 254.5 -71.5t85.5 -210.5v-444q0 -50 -12 -72q-20 -37 -68 -37q-47 0 -67 37q-12 22 -13 44 q-51 -45 -100 -63.5t-121 -18.5q-149 0 -223 81q-61 67 -61 168zM261 877q0 -118 154 -118q57 0 93.5 9.5t65.5 37.5q37 37 37 125v66h-199q-75 0 -113 -31t-38 -89z" />
<glyph unicode="&#xab;" horiz-adv-x="1247" d="M75 538l332 331q28 28 41.5 38.5t30.5 14.5q50 13 91 -28q40 -40 27 -89q-8 -30 -52 -74l-194 -193l194 -194q44 -44 52 -74q13 -49 -27 -89t-91 -27q-27 7 -72 52zM592 538l332 331q28 28 41.5 38.5t30.5 14.5q50 13 91 -28q40 -40 27 -89q-8 -30 -52 -74l-194 -193 l194 -194q44 -44 52 -74q13 -49 -27 -89t-91 -27q-27 7 -72 52z" />
<glyph unicode="&#xac;" d="M91 583q0 55 43 80q23 14 85 14h643q69 0 99 -30q14 -14 21 -33t7.5 -30.5t0.5 -34.5v-226q0 -60 -14 -85q-25 -43 -80 -43t-80 43q-14 23 -14 85v165h-583q-58 0 -85 15q-43 25 -43 80z" />
<glyph unicode="&#xad;" horiz-adv-x="874" d="M129 568q0 55 43 80q25 15 85 15h358q60 0 85 -15q43 -25 43 -80t-43 -80q-25 -14 -85 -14h-358q-60 0 -85 14q-43 25 -43 80z" />
<glyph unicode="&#xae;" horiz-adv-x="1765" d="M141 729q0 202 99.5 372.5t270 269.5t372.5 99q151 0 288.5 -58.5t236.5 -157.5t157.5 -236.5t58.5 -288.5t-58.5 -288.5t-157.5 -236.5t-236.5 -157.5t-288.5 -58.5q-202 0 -372.5 99t-270 269.5t-99.5 372.5zM283 729q0 -126 47 -239t127 -194t191 -128.5t235 -47.5 q123 0 234 47.5t191 128.5t127 194t47 239t-47 239t-127 194t-191 128.5t-234 47.5q-124 0 -235 -47.5t-191 -128.5t-127 -194t-47 -239zM644 447v568q0 46 20 66t66 20h194q105 0 172.5 -65.5t67.5 -162.5q0 -77 -39.5 -127t-103.5 -73l115 -197q21 -35 22 -59 q2 -36 -35 -56q-16 -10 -36 -10q-22 0 -35.5 13t-32.5 45l-142 244h-94v-206q0 -45 -10 -64q-19 -32 -59 -32q-41 0 -60 32q-10 19 -10 64zM783 764h123q53 0 86 29t33 80t-33 80t-86 29h-123v-218z" />
<glyph unicode="&#xaf;" horiz-adv-x="1101" d="M231 1351q0 50 39 70q25 14 76 14h409q50 0 75 -14q38 -20 38 -70q0 -51 -38 -71q-23 -13 -75 -13h-409q-53 0 -76 13q-39 20 -39 71z" />
<glyph unicode="&#xb0;" horiz-adv-x="963" d="M125 1125q0 149 104.5 253.5t252.5 104.5t253 -104.5t105 -253.5q0 -148 -104.5 -252.5t-253.5 -104.5q-148 0 -252.5 104t-104.5 253zM297 1125q0 -81 53.5 -135t131.5 -54t132 54t54 135t-54 135.5t-132 54.5t-131.5 -54.5t-53.5 -135.5z" />
<glyph unicode="&#xb1;" d="M96 94q0 55 43 80q23 14 85 14h643q62 0 85 -14q43 -25 43 -80t-43 -80q-25 -14 -85 -14h-643q-60 0 -85 14q-43 25 -43 80zM96 742q0 55 43 80q25 15 85 15h228v227q0 60 14 85q25 43 80 43t80 -43q14 -23 14 -85v-227h227q60 0 85 -15q43 -25 43 -80q0 -54 -43 -79 q-27 -15 -85 -15h-227v-227q0 -62 -14 -85q-25 -43 -80 -43t-80 43q-14 25 -14 85v227h-228q-58 0 -85 15q-43 25 -43 79z" />
<glyph unicode="&#xb2;" horiz-adv-x="665" d="M70 659q0 33 38 79l290 361q51 62 51 116q0 50 -29.5 80t-81.5 30q-41 0 -70.5 -21.5t-41.5 -63.5q-8 -30 -27 -49q-18 -16 -47 -16q-42 0 -61 29q-13 19 -13 47q0 63 53 125q77 90 207 90q123 0 195 -66.5t72 -184.5q0 -53 -19 -95t-73 -108l-234 -287h242q45 0 65 -12 q30 -17 30 -59q0 -41 -30 -59q-18 -11 -65 -11h-351q-61 0 -81 22q-19 21 -19 53z" />
<glyph unicode="&#xb3;" horiz-adv-x="665" d="M73 787q0 45 22 67q19 19 52 19q30 0 49 -17q18 -18 24 -46q19 -93 121 -93q53 0 86 33t33 90q0 55 -31 87t-89 34q-36 2 -53 19q-20 20 -20 49t20 49q19 18 53 20q53 2 81 32.5t28 77.5q0 53 -32 83t-76 30q-79 0 -104 -67q-12 -36 -22 -53q-17 -29 -58 -29 q-33 0 -52.5 23.5t-19.5 59.5q0 78 57 135q74 74 199 74q118 0 192 -69.5t74 -181.5q0 -125 -100 -179q113 -60 113 -198q0 -126 -79.5 -194.5t-199.5 -68.5q-135 0 -217 87q-51 54 -51 127z" />
<glyph unicode="&#xb4;" horiz-adv-x="1101" d="M476 1302q1 25 32 75l95 153q25 42 45 56q23 17 48 17q24 0 50 -16q48 -30 45 -79q-1 -25 -32 -75l-95 -153q-24 -40 -46 -56q-23 -17 -48 -17q-24 0 -50 16q-47 29 -44 79z" />
<glyph unicode="&#xb5;" horiz-adv-x="1173" d="M166 -286v1190q0 62 15 93q25 50 89 50t89 -50q16 -33 16 -93v-498q0 -116 57.5 -173t151.5 -57t154.5 58t60.5 172v498q0 62 15 93q25 50 89 50t89 -50q16 -33 16 -93v-769q0 -66 -19 -99q-27 -44 -86 -44q-57 0 -85 41q-16 21 -18 68q-107 -113 -274 -113 q-96 0 -151 52v-326q0 -60 -16 -93q-25 -49 -89 -49t-89 49q-15 31 -15 93z" />
<glyph unicode="&#xb6;" horiz-adv-x="1304" d="M78 1051q0 184 125.5 295.5t335.5 111.5h447q68 0 98 -30t30 -98v-1616q0 -62 -15 -93q-25 -49 -89 -49t-89 49q-16 33 -16 93v1548h-221v-1548q0 -62 -15 -93q-25 -49 -89 -49q-66 0 -90 49q-15 31 -15 93v934q-166 0 -281.5 119.5t-115.5 283.5z" />
<glyph unicode="&#xb7;" horiz-adv-x="651" d="M176 568q0 61 44 104.5t106 43.5t105.5 -43.5t43.5 -104.5t-43.5 -104t-105.5 -43t-106 43t-44 104z" />
<glyph unicode="&#xb8;" horiz-adv-x="1101" d="M315 -411q1 27 33 76l95 153q26 43 45 56q22 16 49 16q26 0 50 -15q47 -29 44 -79q-1 -26 -32 -76l-95 -152q-25 -42 -45 -57q-24 -16 -48 -16q-27 0 -51 16q-48 29 -45 78z" />
<glyph unicode="&#xb9;" horiz-adv-x="665" d="M94 1218q7 21 41 56l148 148q44 44 92 44q40 0 62 -23q25 -26 25 -79v-679q0 -51 -12 -73q-20 -37 -68 -37t-68 37q-12 22 -12 73v543l-60 -61q-32 -33 -57 -40q-39 -11 -69 21q-33 33 -22 70z" />
<glyph unicode="&#xba;" horiz-adv-x="937" d="M127 1043q0 115 22 193t79 135q93 93 241 93t241 -93q57 -57 79 -135t22 -193t-22 -192.5t-79 -134.5q-93 -93 -241 -93t-241 93q-57 57 -79 134.5t-22 192.5zM287 1043q0 -83 10.5 -138t44.5 -89q51 -51 127 -51t127 51q34 34 44.5 89t10.5 138t-10.5 138.5t-44.5 89.5 q-51 51 -127 51t-127 -51q-34 -34 -44.5 -89.5t-10.5 -138.5z" />
<glyph unicode="&#xbb;" horiz-adv-x="1247" d="M133 270q8 30 52 74l194 194l-194 193q-44 44 -52 74q-13 49 27 89q41 41 91 28q27 -7 73 -53l331 -331l-331 -332q-45 -45 -73 -52q-51 -13 -91 27t-27 89zM650 270q8 30 52 74l194 194l-194 193q-44 44 -52 74q-13 49 27 89q41 41 91 28q27 -7 73 -53l331 -331 l-331 -332q-45 -45 -73 -52q-51 -13 -91 27t-27 89z" />
<glyph unicode="&#xbc;" horiz-adv-x="1693" d="M94 1218q7 21 41 56l148 148q44 44 92 44q40 0 62 -23q25 -26 25 -79v-679q0 -51 -12 -73q-20 -37 -68 -37t-68 37q-12 22 -12 73v543l-60 -61q-32 -33 -57 -40q-39 -11 -69 21q-33 33 -22 70zM441 60q-1 23 20 67l637 1272q20 42 41 55q19 12 37 12q17 0 35 -9 q40 -19 41 -59q1 -25 -19 -67l-637 -1272q-20 -42 -41 -55q-19 -12 -37 -12t-36 9q-40 19 -41 59zM1062 196q0 20 19 59l281 561q33 68 80 68q29 0 52 -20.5t23 -50.5q0 -23 -20 -64l-241 -482h164v72q0 50 13 73q20 37 67 37q48 0 68 -37q12 -22 12 -73v-72h4q45 0 65 -12 q30 -17 30 -58q0 -42 -30 -60q-18 -11 -65 -11h-4v-25q0 -50 -12 -72q-20 -37 -68 -37q-47 0 -67 37q-13 23 -13 72v25h-263q-41 0 -61 11q-34 20 -34 59z" />
<glyph unicode="&#xbd;" horiz-adv-x="1693" d="M94 1218q7 21 41 56l148 148q44 44 92 44q40 0 62 -23q25 -26 25 -79v-679q0 -51 -12 -73q-20 -37 -68 -37t-68 37q-12 22 -12 73v543l-60 -61q-32 -33 -57 -40q-39 -11 -69 21q-33 33 -22 70zM441 60q-1 23 20 67l637 1272q20 42 41 55q19 12 37 12q17 0 35 -9 q40 -19 41 -59q1 -25 -19 -67l-637 -1272q-20 -42 -41 -55q-19 -12 -37 -12t-36 9q-40 19 -41 59zM1098 76q0 33 38 79l290 360q51 62 51 117q0 50 -29.5 79.5t-81.5 29.5q-41 0 -70.5 -21.5t-41.5 -63.5q-8 -30 -27 -49q-18 -16 -47 -16q-42 0 -61 30q-13 19 -13 47 q0 63 53 125q77 90 207 90q123 0 195 -66.5t72 -184.5q0 -53 -19 -95.5t-73 -108.5l-234 -287h242q45 0 65 -12q31 -17 31 -58t-31 -60q-18 -11 -65 -11h-351q-60 0 -81 23q-19 21 -19 53z" />
<glyph unicode="&#xbe;" horiz-adv-x="1693" d="M73 790q0 44 22 66q20 20 52 20q29 0 49 -18q18 -18 24 -46q19 -93 121 -93q53 0 86 33t33 90q0 55 -31 87t-89 34q-36 2 -53 19q-20 20 -20 49t20 49q19 18 53 20q53 2 81 32.5t28 77.5q0 53 -32 83t-76 30q-79 0 -104 -67q-12 -36 -22 -53q-16 -28 -58 -28 q-33 0 -52.5 23t-19.5 59q0 78 57 135q74 74 199 74q118 0 192 -69.5t74 -181.5q0 -125 -100 -179q113 -60 113 -198q0 -126 -79.5 -194.5t-199.5 -68.5q-134 0 -217 88q-51 54 -51 127zM441 60q-1 23 20 67l637 1272q20 42 41 55q19 12 37 12q17 0 35 -9q40 -19 41 -59 q1 -25 -19 -67l-637 -1272q-20 -42 -41 -55q-19 -12 -37 -12t-36 9q-40 19 -41 59zM1062 196q0 20 19 59l281 561q33 68 80 68q29 0 52 -20.5t23 -50.5q0 -23 -20 -64l-241 -482h164v72q0 50 13 73q20 37 67 37q48 0 68 -37q12 -22 12 -73v-72h4q45 0 65 -12q30 -17 30 -58 q0 -42 -30 -60q-18 -11 -65 -11h-4v-25q0 -50 -12 -72q-20 -37 -68 -37q-47 0 -67 37q-13 23 -13 72v25h-263q-41 0 -61 11q-34 20 -34 59z" />
<glyph unicode="&#xbf;" horiz-adv-x="1045" d="M83 -47q0 75 23 130.5t73 123.5l140 193q25 34 35.5 63t16.5 69q6 43 29 69q29 32 79 32q48 0 79 -34q27 -30 27 -79q0 -56 -14.5 -96.5t-55.5 -96.5l-160 -215q-62 -83 -62 -159q0 -85 55 -141.5t142 -56.5q90 0 147 57q38 38 59 120q11 43 29 63q28 31 76 31 q42 0 70 -31q25 -29 25 -77q0 -58 -29 -124t-82 -116q-116 -110 -293 -110q-174 0 -291.5 106.5t-117.5 278.5zM347 911q0 55 38.5 94t94.5 39t94.5 -39t38.5 -94t-38.5 -94t-94.5 -39t-94.5 39t-38.5 94z" />
<glyph unicode="&#xc0;" horiz-adv-x="1275" d="M49 70q-5 25 0 46t18 55l446 1189q19 52 44 76q33 30 81 30t81 -30q25 -24 44 -76l446 -1189q13 -34 18 -55t0 -46t-25 -45q-31 -33 -81 -33q-34 0 -60 21q-24 19 -48 84l-73 196h-604l-73 -196q-24 -65 -48 -84q-26 -21 -60 -21q-50 0 -81 33q-20 20 -25 45zM399 1878 q-3 50 44 79q24 15 51 15q26 0 48 -16q20 -14 45 -56l95 -153q31 -50 32 -76q3 -50 -44 -79q-24 -15 -50 -15q-27 0 -49 16q-19 14 -45 57l-95 152q-31 50 -32 76zM404 481h467l-233 638z" />
<glyph unicode="&#xc1;" horiz-adv-x="1275" d="M49 70q-5 25 0 46t18 55l446 1189q19 52 44 76q33 30 81 30t81 -30q25 -24 44 -76l446 -1189q13 -34 18 -55t0 -46t-25 -45q-31 -33 -81 -33q-34 0 -60 21q-24 19 -48 84l-73 196h-604l-73 -196q-24 -65 -48 -84q-26 -21 -60 -21q-50 0 -81 33q-20 20 -25 45zM404 481 h467l-233 638zM562 1671q1 26 32 76l95 153q25 42 45 56q22 16 48 16q27 0 51 -15q47 -29 44 -79q-1 -26 -32 -76l-95 -152q-26 -43 -45 -57q-22 -16 -49 -16q-26 0 -50 15q-47 29 -44 79z" />
<glyph unicode="&#xc2;" horiz-adv-x="1275" d="M49 70q-5 25 0 46t18 55l446 1189q19 52 44 76q33 30 81 30t81 -30q25 -24 44 -76l446 -1189q13 -34 18 -55t0 -46t-25 -45q-31 -33 -81 -33q-34 0 -60 21q-24 19 -48 84l-73 196h-604l-73 -196q-24 -65 -48 -84q-26 -21 -60 -21q-50 0 -81 33q-20 20 -25 45zM334 1677 q7 26 44 63l170 170q16 16 25.5 24t27.5 16.5t37 8.5t37 -8.5t27.5 -16.5t25.5 -24l170 -170q37 -37 44 -63q13 -44 -22 -79q-36 -34 -78 -22q-27 7 -64 44l-140 141l-140 -141q-37 -37 -64 -44q-42 -12 -78 22q-35 35 -22 79zM404 481h467l-233 638z" />
<glyph unicode="&#xc3;" horiz-adv-x="1275" d="M49 70q-5 25 0 46t18 55l446 1189q19 52 44 76q33 30 81 30t81 -30q25 -24 44 -76l446 -1189q13 -34 18 -55t0 -46t-25 -45q-31 -33 -81 -33q-34 0 -60 21q-24 19 -48 84l-73 196h-604l-73 -196q-24 -65 -48 -84q-26 -21 -60 -21q-50 0 -81 33q-20 20 -25 45zM286 1711 q0 39 47 79q77 63 171 63q44 0 76.5 -10t76.5 -36q66 -38 110 -38q47 0 90 35q34 27 61 27q34 0 55 -24q17 -20 17 -53q0 -39 -47 -79q-77 -63 -171 -63q-44 0 -77 10t-77 36q-66 38 -109 38q-47 0 -90 -35q-34 -27 -61 -27q-34 0 -55 24q-17 20 -17 53zM404 481h467 l-233 638z" />
<glyph unicode="&#xc4;" horiz-adv-x="1275" d="M49 70q-5 25 0 46t18 55l446 1189q19 52 44 76q33 30 81 30t81 -30q25 -24 44 -76l446 -1189q13 -34 18 -55t0 -46t-25 -45q-31 -33 -81 -33q-34 0 -60 21q-24 19 -48 84l-73 196h-604l-73 -196q-24 -65 -48 -84q-26 -21 -60 -21q-50 0 -81 33q-20 20 -25 45zM298 1718 q0 47 34 81t81 34t81.5 -34t34.5 -81t-34.5 -81.5t-81.5 -34.5t-81 34.5t-34 81.5zM404 481h467l-233 638zM746 1718q0 47 35 81t82 34t81 -34t34 -81t-34 -81.5t-81 -34.5t-82 34.5t-35 81.5z" />
<glyph unicode="&#xc5;" horiz-adv-x="1275" d="M49 70q-5 25 0 46t18 55l446 1189q19 52 44 76q33 30 81 30t81 -30q25 -24 44 -76l446 -1189q13 -34 18 -55t0 -46t-25 -45q-31 -33 -81 -33q-34 0 -60 21q-24 19 -48 84l-73 196h-604l-73 -196q-24 -65 -48 -84q-26 -21 -60 -21q-50 0 -81 33q-20 20 -25 45zM382 1791 q0 106 75 181t181 75t181 -75t75 -181t-75 -181t-181 -75t-181 75t-75 181zM404 481h467l-233 638zM508 1791q0 -54 38 -92t92 -38t92 38t38 92t-38 92t-92 38t-92 -38t-38 -92z" />
<glyph unicode="&#xc6;" horiz-adv-x="1896" d="M47 86q-1 34 28 91l573 1149q37 74 73 102q39 30 89 30h851q63 0 90 -14q45 -25 45 -84t-45 -84q-27 -14 -90 -14h-586v-428h481q62 0 91 -15q45 -25 45 -84t-45 -84q-27 -14 -91 -14h-481v-440h586q61 0 90 -15q45 -25 45 -84t-45 -84q-27 -14 -90 -14h-672 q-71 0 -103 32t-32 103v198h-469l-124 -249q-19 -38 -29 -52.5t-25 -24.5q-23 -15 -50 -15q-29 0 -53 12q-55 27 -57 82zM479 520h375v753z" />
<glyph unicode="&#xc7;" horiz-adv-x="1283" d="M138 729q0 108 2 167.5t9.5 130.5t23 115.5t43 91t69.5 88.5q148 148 375 148q132 0 222 -37.5t160 -112.5q56 -61 84 -125.5t28 -109.5q0 -53 -30 -83q-33 -30 -76 -30q-40 0 -66 21q-28 21 -54 83q-41 98 -107 148t-165 50q-125 0 -210 -91q-56 -60 -71.5 -148 t-15.5 -306t15.5 -306t71.5 -148q85 -91 210 -91q99 0 165 50t107 148q26 62 54 83q26 21 66 21q43 0 76 -30q30 -30 30 -83q0 -45 -28 -109.5t-84 -125.5q-70 -75 -160 -112.5t-222 -37.5q-227 0 -375 148q-42 42 -69.5 88.5t-43 91t-23 115.5t-9.5 130.5t-2 167.5z M454 -411q1 29 32 76l96 153q26 43 45 56q22 16 48 16t50 -15q47 -29 44 -79q-1 -26 -32 -76l-95 -152q-25 -42 -45 -57q-24 -16 -48 -16q-26 0 -50 16q-48 29 -45 78z" />
<glyph unicode="&#xc8;" horiz-adv-x="1231" d="M189 135v1188q0 71 32 103t104 32h671q63 0 90 -14q46 -26 46 -84t-46 -84q-27 -14 -90 -14h-585v-428h481q61 0 90 -15q45 -25 45 -84t-45 -84q-27 -14 -90 -14h-481v-440h585q61 0 90 -15q46 -26 46 -84t-46 -84q-27 -14 -90 -14h-671q-72 0 -104 32t-32 103zM404 1878 q-3 49 45 79q24 15 50 15t48 -16q20 -14 45 -56l95 -153q31 -50 32 -76q3 -50 -44 -79q-24 -15 -50 -15t-48 16q-20 15 -46 57l-95 152q-31 50 -32 76z" />
<glyph unicode="&#xc9;" horiz-adv-x="1231" d="M189 135v1188q0 71 32 103t104 32h671q63 0 90 -14q46 -26 46 -84t-46 -84q-27 -14 -90 -14h-585v-428h481q61 0 90 -15q45 -25 45 -84t-45 -84q-27 -14 -90 -14h-481v-440h585q61 0 90 -15q46 -26 46 -84t-46 -84q-27 -14 -90 -14h-671q-72 0 -104 32t-32 103zM567 1671 q1 26 32 76l95 153q25 42 45 56q22 16 48 16q27 0 51 -15q47 -29 44 -79q-1 -26 -32 -76l-95 -152q-26 -43 -45 -57q-22 -16 -48 -16q-27 0 -51 15q-47 29 -44 79z" />
<glyph unicode="&#xca;" horiz-adv-x="1231" d="M189 135v1188q0 71 32 103t104 32h671q63 0 90 -14q46 -26 46 -84t-46 -84q-27 -14 -90 -14h-585v-428h481q61 0 90 -15q45 -25 45 -84t-45 -84q-27 -14 -90 -14h-481v-440h585q61 0 90 -15q46 -26 46 -84t-46 -84q-27 -14 -90 -14h-671q-72 0 -104 32t-32 103zM339 1677 q7 26 44 63l170 170q16 16 25.5 24t27.5 16.5t37 8.5t37 -8.5t27.5 -16.5t25.5 -24l170 -170q37 -37 44 -63q13 -44 -22 -79q-36 -34 -78 -22q-27 7 -64 44l-140 141l-140 -141q-37 -37 -64 -44q-42 -12 -78 22q-35 35 -22 79z" />
<glyph unicode="&#xcb;" horiz-adv-x="1231" d="M189 135v1188q0 71 32 103t104 32h671q63 0 90 -14q46 -26 46 -84t-46 -84q-27 -14 -90 -14h-585v-428h481q61 0 90 -15q45 -25 45 -84t-45 -84q-27 -14 -90 -14h-481v-440h585q61 0 90 -15q46 -26 46 -84t-46 -84q-27 -14 -90 -14h-671q-72 0 -104 32t-32 103zM303 1718 q0 47 34 81t81 34t82 -34t35 -81t-35 -81.5t-82 -34.5t-81 34.5t-34 81.5zM752 1718q0 47 34.5 81t81.5 34t81 -34t34 -81t-34 -81.5t-81 -34.5t-81.5 34.5t-34.5 81.5z" />
<glyph unicode="&#xcc;" horiz-adv-x="600" d="M62 1878q-3 50 44 79q24 15 51 15q26 0 48 -16q20 -14 45 -56l95 -153q31 -50 32 -76q3 -50 -44 -79q-24 -15 -50 -15q-27 0 -49 16q-19 14 -45 57l-95 152q-31 50 -32 76zM189 142v1174q0 42 3 60.5t14 39.5q27 50 94 50t94 -50q11 -21 14 -39.5t3 -60.5v-1174 q0 -42 -3 -60.5t-14 -39.5q-27 -50 -94 -50t-94 50q-11 21 -14 39.5t-3 60.5z" />
<glyph unicode="&#xcd;" horiz-adv-x="600" d="M189 142v1174q0 42 3 60.5t14 39.5q27 50 94 50t94 -50q11 -21 14 -39.5t3 -60.5v-1174q0 -42 -3 -60.5t-14 -39.5q-27 -50 -94 -50t-94 50q-11 21 -14 39.5t-3 60.5zM225 1671q1 26 32 76l95 153q25 42 45 56q22 16 48 16q27 0 51 -15q47 -29 44 -79q-1 -26 -32 -76 l-95 -152q-26 -43 -45 -57q-22 -16 -49 -16q-26 0 -50 15q-47 29 -44 79z" />
<glyph unicode="&#xce;" horiz-adv-x="600" d="M-3 1677q7 26 44 63l170 170q16 16 25.5 24t27.5 16.5t37 8.5t37 -8.5t27.5 -16.5t25.5 -24l170 -170q37 -37 44 -63q13 -44 -22 -79q-36 -34 -78 -22q-27 7 -64 44l-140 141l-140 -141q-37 -37 -64 -44q-42 -12 -78 22q-35 35 -22 79zM189 142v1174q0 42 3 60.5t14 39.5 q27 50 94 50t94 -50q11 -21 14 -39.5t3 -60.5v-1174q0 -42 -3 -60.5t-14 -39.5q-27 -50 -94 -50t-94 50q-11 21 -14 39.5t-3 60.5z" />
<glyph unicode="&#xcf;" horiz-adv-x="600" d="M-16 1729q0 47 33.5 80.5t80.5 33.5q48 0 82.5 -33.5t34.5 -80.5t-35 -82t-82 -35t-80.5 34.5t-33.5 82.5zM189 142v1174q0 42 3 60.5t14 39.5q27 50 94 50t94 -50q11 -21 14 -39.5t3 -60.5v-1174q0 -42 -3 -60.5t-14 -39.5q-27 -50 -94 -50t-94 50q-11 21 -14 39.5 t-3 60.5zM389 1729q0 47 34.5 80.5t82.5 33.5q47 0 81 -33.5t34 -80.5t-34 -82t-81 -35t-82 35t-35 82z" />
<glyph unicode="&#xd0;" horiz-adv-x="1404" d="M49 735q0 53 40 75q22 13 80 13h61v500q0 71 32 103t104 32h377q270 0 416 -185q70 -90 89 -205t19 -339q0 -221 -19.5 -338t-90.5 -208q-142 -183 -414 -183h-377q-72 0 -104 32t-32 103v512h-61q-58 0 -80 13q-40 22 -40 75zM452 197h266q166 0 251 99q50 56 63.5 150 t13.5 283t-13.5 283t-63.5 150q-86 100 -251 100h-266v-439h184q59 0 81 -13q40 -22 40 -75t-40 -75q-22 -13 -81 -13h-184v-450z" />
<glyph unicode="&#xd1;" horiz-adv-x="1477" d="M189 142v1183q0 75 32 107q34 34 84 34q37 0 65.5 -22.5t63.5 -74.5l633 -935v882q0 43 2.5 61t13.5 39q27 50 95 50q67 0 94 -50q11 -21 13.5 -39t2.5 -61v-1184q0 -73 -32 -105q-35 -35 -84 -35q-37 0 -65.5 22.5t-63.5 74.5l-632 935v-882q0 -42 -3 -60.5t-14 -39.5 q-27 -50 -94 -50t-94 50q-11 21 -14 39.5t-3 60.5zM386 1711q0 39 47 79q77 63 171 63q44 0 77 -10t77 -36q66 -38 109 -38q47 0 90 35q34 27 61 27q34 0 55 -24q18 -21 18 -53q0 -38 -48 -79q-77 -63 -171 -63q-44 0 -76.5 10t-76.5 36q-66 38 -110 38q-47 0 -90 -35 q-34 -27 -60 -27q-35 0 -56 24q-17 20 -17 53z" />
<glyph unicode="&#xd2;" horiz-adv-x="1325" d="M138 729q0 108 2 167.5t9.5 130.5t23 115.5t43 91t69.5 88.5q148 148 378 148q228 0 376 -148q42 -42 69.5 -88.5t43.5 -91t23.5 -115t9.5 -131t2 -167.5t-2 -167.5t-9.5 -131t-23.5 -115t-43.5 -91t-69.5 -88.5q-148 -148 -376 -148q-230 0 -378 148q-42 42 -69.5 88.5 t-43 91t-23 115.5t-9.5 130.5t-2 167.5zM359 729q0 -221 16 -308.5t70 -144.5q86 -92 218 -92q130 0 217 92q53 57 69.5 145t16.5 308t-16.5 308.5t-69.5 145.5q-86 91 -217 91q-133 0 -218 -91q-54 -57 -70 -145t-16 -309zM423 1878q-3 50 44 79q24 15 50 15t48 -16 q20 -14 45 -56l96 -153q30 -48 31 -76q3 -50 -44 -79q-24 -15 -50 -15t-48 16q-19 14 -45 57l-95 152q-31 50 -32 76z" />
<glyph unicode="&#xd3;" horiz-adv-x="1325" d="M138 729q0 108 2 167.5t9.5 130.5t23 115.5t43 91t69.5 88.5q148 148 378 148q228 0 376 -148q42 -42 69.5 -88.5t43.5 -91t23.5 -115t9.5 -131t2 -167.5t-2 -167.5t-9.5 -131t-23.5 -115t-43.5 -91t-69.5 -88.5q-148 -148 -376 -148q-230 0 -378 148q-42 42 -69.5 88.5 t-43 91t-23 115.5t-9.5 130.5t-2 167.5zM359 729q0 -221 16 -308.5t70 -144.5q86 -92 218 -92q130 0 217 92q53 57 69.5 145t16.5 308t-16.5 308.5t-69.5 145.5q-86 91 -217 91q-133 0 -218 -91q-54 -57 -70 -145t-16 -309zM586 1671q1 28 31 76l96 153q25 42 45 56 q22 16 48 16t50 -15q47 -29 44 -79q-1 -26 -32 -76l-95 -152q-26 -43 -45 -57q-22 -16 -48 -16t-50 15q-47 29 -44 79z" />
<glyph unicode="&#xd4;" horiz-adv-x="1325" d="M138 729q0 108 2 167.5t9.5 130.5t23 115.5t43 91t69.5 88.5q148 148 378 148q228 0 376 -148q42 -42 69.5 -88.5t43.5 -91t23.5 -115t9.5 -131t2 -167.5t-2 -167.5t-9.5 -131t-23.5 -115t-43.5 -91t-69.5 -88.5q-148 -148 -376 -148q-230 0 -378 148q-42 42 -69.5 88.5 t-43 91t-23 115.5t-9.5 130.5t-2 167.5zM357 1677q7 26 44 63l170 170q49 49 91 49q19 0 37 -8.5t27.5 -16.5t25.5 -24l170 -170q37 -37 44 -63q12 -44 -23 -79q-36 -34 -78 -22q-26 7 -63 44l-140 141l-141 -141q-37 -37 -63 -44q-42 -12 -78 22q-35 35 -23 79zM359 729 q0 -221 16 -308.5t70 -144.5q86 -92 218 -92q130 0 217 92q53 57 69.5 145t16.5 308t-16.5 308.5t-69.5 145.5q-86 91 -217 91q-133 0 -218 -91q-54 -57 -70 -145t-16 -309z" />
<glyph unicode="&#xd5;" horiz-adv-x="1325" d="M138 729q0 108 2 167.5t9.5 130.5t23 115.5t43 91t69.5 88.5q148 148 378 148q228 0 376 -148q42 -42 69.5 -88.5t43.5 -91t23.5 -115t9.5 -131t2 -167.5t-2 -167.5t-9.5 -131t-23.5 -115t-43.5 -91t-69.5 -88.5q-148 -148 -376 -148q-230 0 -378 148q-42 42 -69.5 88.5 t-43 91t-23 115.5t-9.5 130.5t-2 167.5zM309 1711q0 39 47 79q77 63 171 63q44 0 77 -10t77 -36q66 -38 110 -38q47 0 90 35q34 27 60 27q34 0 55 -24q18 -21 18 -53q0 -39 -47 -79q-77 -63 -171 -63q-44 0 -77 10t-77 36q-66 38 -110 38q-47 0 -90 -35q-34 -27 -60 -27 q-34 0 -55 24q-18 21 -18 53zM359 729q0 -221 16 -308.5t70 -144.5q86 -92 218 -92q130 0 217 92q53 57 69.5 145t16.5 308t-16.5 308.5t-69.5 145.5q-86 91 -217 91q-133 0 -218 -91q-54 -57 -70 -145t-16 -309z" />
<glyph unicode="&#xd6;" horiz-adv-x="1325" d="M138 729q0 108 2 167.5t9.5 130.5t23 115.5t43 91t69.5 88.5q148 148 378 148q228 0 376 -148q42 -42 69.5 -88.5t43.5 -91t23.5 -115t9.5 -131t2 -167.5t-2 -167.5t-9.5 -131t-23.5 -115t-43.5 -91t-69.5 -88.5q-148 -148 -376 -148q-230 0 -378 148q-42 42 -69.5 88.5 t-43 91t-23 115.5t-9.5 130.5t-2 167.5zM322 1718q0 47 33.5 81t80.5 34t82 -34t35 -81t-35 -81.5t-82 -34.5t-80.5 34.5t-33.5 81.5zM359 729q0 -221 16 -308.5t70 -144.5q86 -92 218 -92q130 0 217 92q53 57 69.5 145t16.5 308t-16.5 308.5t-69.5 145.5q-86 91 -217 91 q-133 0 -218 -91q-54 -57 -70 -145t-16 -309zM770 1718q0 47 35 81t82 34t80.5 -34t33.5 -81t-33.5 -81.5t-80.5 -34.5t-82 34.5t-35 81.5z" />
<glyph unicode="&#xd7;" d="M157 296q8 30 52 74l199 198l-199 198q-44 44 -52 74q-13 50 26 89q40 40 91 27q28 -7 73 -52l199 -197l198 197q45 45 73 52q51 13 91 -27t27 -89q-8 -30 -52 -74l-199 -198l199 -198q44 -44 52 -74q13 -49 -27 -89q-41 -41 -91 -28q-28 7 -73 52l-198 199l-199 -199 q-45 -45 -73 -52q-50 -13 -91 28q-39 39 -26 89z" />
<glyph unicode="&#xd8;" horiz-adv-x="1325" d="M138 729q0 108 2 167.5t9.5 130.5t23 115.5t43 91t69.5 88.5q148 148 378 148q125 0 233 -51l31 61q23 48 48 64q37 24 82 2q46 -22 46 -70q0 -24 -24 -73l-40 -81q42 -42 69.5 -88.5t43.5 -91t23.5 -115t9.5 -131t2 -167.5t-2 -167.5t-9.5 -131t-23.5 -115t-43.5 -91 t-69.5 -88.5q-148 -148 -376 -148q-133 0 -236 52l-30 -62q-23 -48 -48 -64q-37 -24 -82 -2q-46 22 -46 71q0 23 24 72l41 81q-42 42 -69.5 88.5t-43.5 91t-23.5 115t-9.5 131t-2 167.5zM359 729q0 -161 9.5 -237.5t44.5 -130.5l412 867q-71 46 -162 46q-133 0 -218 -91 q-54 -57 -70 -145t-16 -309zM499 231q71 -47 164 -47q130 0 217 92q53 57 69.5 145t16.5 308q0 159 -10 236t-45 131z" />
<glyph unicode="&#xd9;" horiz-adv-x="1378" d="M167 492v824q0 43 2.5 61t13.5 39q27 50 95 50q67 0 94 -50q11 -21 13.5 -39t2.5 -61v-814q0 -146 82 -232t219 -86t219 86t82 232v814q0 42 3 60.5t14 39.5q27 50 94 50t94 -50q11 -21 13.5 -39t2.5 -61v-824q0 -223 -148.5 -363.5t-373.5 -140.5t-373.5 140.5 t-148.5 363.5zM451 1878q-3 50 44 79q24 15 50 15t48 -16q20 -14 45 -56l95 -153q31 -50 32 -76q3 -50 -44 -79q-24 -15 -50 -15t-48 16q-19 14 -45 57l-96 152q-30 48 -31 76z" />
<glyph unicode="&#xda;" horiz-adv-x="1378" d="M167 492v824q0 43 2.5 61t13.5 39q27 50 95 50q67 0 94 -50q11 -21 13.5 -39t2.5 -61v-814q0 -146 82 -232t219 -86t219 86t82 232v814q0 42 3 60.5t14 39.5q27 50 94 50t94 -50q11 -21 13.5 -39t2.5 -61v-824q0 -223 -148.5 -363.5t-373.5 -140.5t-373.5 140.5 t-148.5 363.5zM613 1671q1 26 32 76l95 153q25 42 45 56q22 16 49 16q26 0 50 -15q47 -29 44 -79q-1 -26 -32 -76l-95 -152q-26 -43 -45 -57q-22 -16 -48 -16q-27 0 -51 15q-47 29 -44 79z" />
<glyph unicode="&#xdb;" horiz-adv-x="1378" d="M167 492v824q0 43 2.5 61t13.5 39q27 50 95 50q67 0 94 -50q11 -21 13.5 -39t2.5 -61v-814q0 -146 82 -232t219 -86t219 86t82 232v814q0 42 3 60.5t14 39.5q27 50 94 50t94 -50q11 -21 13.5 -39t2.5 -61v-824q0 -223 -148.5 -363.5t-373.5 -140.5t-373.5 140.5 t-148.5 363.5zM385 1677q7 26 44 63l170 170q16 16 25.5 24t27.5 16.5t37 8.5t37 -8.5t27.5 -16.5t25.5 -24l170 -170q37 -37 44 -63q13 -44 -22 -79q-36 -34 -78 -22q-27 7 -64 44l-140 141l-140 -141q-37 -37 -64 -44q-42 -12 -77 22q-35 35 -23 79z" />
<glyph unicode="&#xdc;" horiz-adv-x="1378" d="M167 492v824q0 43 2.5 61t13.5 39q27 50 95 50q67 0 94 -50q11 -21 13.5 -39t2.5 -61v-814q0 -146 82 -232t219 -86t219 86t82 232v814q0 42 3 60.5t14 39.5q27 50 94 50t94 -50q11 -21 13.5 -39t2.5 -61v-824q0 -223 -148.5 -363.5t-373.5 -140.5t-373.5 140.5 t-148.5 363.5zM349 1718q0 47 34 81t81 34t82 -34t35 -81t-35 -81.5t-82 -34.5t-81 34.5t-34 81.5zM798 1718q0 47 34.5 81t81.5 34t81 -34t34 -81t-34 -81.5t-81 -34.5t-81.5 34.5t-34.5 81.5z" />
<glyph unicode="&#xdd;" horiz-adv-x="1071" d="M45 1372q2 55 57 82q24 12 53 12q27 0 50 -15q15 -10 25 -24.5t29 -52.5l277 -554l276 554q19 38 29 52.5t25 24.5q22 15 50 15q29 0 53 -12q55 -27 57 -82q1 -34 -28 -91l-352 -700v-439q0 -43 -2.5 -61t-13.5 -39q-27 -50 -94 -50q-68 0 -95 50q-11 21 -13.5 39 t-2.5 61v439l-352 700q-29 57 -28 91zM459 1671q1 28 31 76l96 153q25 42 45 56q22 16 48 16t50 -15q47 -29 44 -79q-1 -26 -32 -76l-95 -152q-26 -43 -45 -57q-22 -16 -48 -16t-50 15q-47 29 -44 79z" />
<glyph unicode="&#xde;" horiz-adv-x="1304" d="M189 142v1174q0 42 3 60.5t14 39.5q27 50 94 50t94 -50q11 -21 14 -39.5t3 -60.5v-138h331q211 0 339 -125t128 -318t-128 -316.5t-339 -123.5h-331v-153q0 -42 -3 -60.5t-14 -39.5q-27 -50 -94 -50t-94 50q-11 21 -14 39.5t-3 60.5zM411 492h319q119 0 189 64.5 t70 179.5t-70 180t-189 65h-319v-489z" />
<glyph unicode="&#xdf;" horiz-adv-x="1155" d="M166 134v935q0 198 117.5 301t318.5 103q188 0 305 -89t117 -263q0 -157 -127 -237q68 -36 97.5 -88t29.5 -147v-351q0 -138 -82 -217q-84 -81 -216 -81h-20q-60 0 -89 16q-42 22 -42 73q0 52 42 74q22 12 76 14q59 2 88 35q34 35 34 107v343q0 68 -35 103q-30 30 -95 32 q-52 1 -73 13q-37 20 -37 68q0 47 37 67q21 12 73 13q58 2 94 42t36 110q0 77 -51 126q-53 52 -168 52q-118 0 -169.5 -59.5t-51.5 -171.5v-923q0 -60 -16 -93q-25 -49 -89 -49t-89 49q-15 31 -15 93z" />
<glyph unicode="&#xe0;" horiz-adv-x="1085" d="M85 305q0 135 93.5 218t265.5 83h276v65q0 103 -52 152.5t-165 49.5q-109 0 -199 -69q-38 -28 -76 -28q-37 0 -60 28q-25 28 -25 64q0 63 98 120q109 63 264 63q209 0 317 -90.5t108 -267.5v-559q0 -64 -16 -94q-25 -48 -89 -48q-47 0 -75 30q-22 25 -24 74 q-62 -60 -123 -83.5t-156 -23.5q-189 0 -279 94q-83 85 -83 222zM286 1508q-3 50 44 79q26 16 50 16q25 0 48 -17q20 -14 45 -56l95 -153q31 -50 32 -75q3 -50 -44 -79q-26 -16 -50 -16q-25 0 -48 17q-20 14 -45 56l-96 153q-30 48 -31 75zM289 308q0 -146 195 -146 q64 0 108.5 12t81.5 47q46 43 46 155v82h-246q-91 0 -138 -38.5t-47 -111.5z" />
<glyph unicode="&#xe1;" horiz-adv-x="1085" d="M85 305q0 135 93.5 218t265.5 83h276v65q0 103 -52 152.5t-165 49.5q-109 0 -199 -69q-38 -28 -76 -28q-37 0 -60 28q-25 28 -25 64q0 63 98 120q109 63 264 63q209 0 317 -90.5t108 -267.5v-559q0 -64 -16 -94q-25 -48 -89 -48q-47 0 -75 30q-22 25 -24 74 q-62 -60 -123 -83.5t-156 -23.5q-189 0 -279 94q-83 85 -83 222zM289 308q0 -146 195 -146q64 0 108.5 12t81.5 47q46 43 46 155v82h-246q-91 0 -138 -38.5t-47 -111.5zM451 1302q1 27 31 75l96 153q25 42 45 56q23 17 48 17q24 0 50 -16q47 -29 44 -79q-1 -25 -32 -75 l-95 -153q-25 -42 -45 -56q-23 -17 -48 -17q-24 0 -50 16q-47 29 -44 79z" />
<glyph unicode="&#xe2;" horiz-adv-x="1085" d="M85 305q0 135 93.5 218t265.5 83h276v65q0 103 -52 152.5t-165 49.5q-109 0 -199 -69q-38 -28 -76 -28q-37 0 -60 28q-25 28 -25 64q0 63 98 120q109 63 264 63q209 0 317 -90.5t108 -267.5v-559q0 -64 -16 -94q-25 -48 -89 -48q-47 0 -75 30q-22 25 -24 74 q-62 -60 -123 -83.5t-156 -23.5q-189 0 -279 94q-83 85 -83 222zM221 1304q6 24 44 62l170 170q16 16 25.5 24t27.5 16.5t37 8.5t37 -8.5t27.5 -16.5t25.5 -24l170 -170q38 -38 44 -62q13 -44 -22 -79q-36 -35 -78 -23q-26 7 -63 44l-141 142l-140 -142q-37 -37 -63 -44 q-42 -12 -78 23q-35 35 -23 79zM289 308q0 -146 195 -146q64 0 108.5 12t81.5 47q46 43 46 155v82h-246q-91 0 -138 -38.5t-47 -111.5z" />
<glyph unicode="&#xe3;" horiz-adv-x="1085" d="M85 305q0 135 93.5 218t265.5 83h276v65q0 103 -52 152.5t-165 49.5q-109 0 -199 -69q-38 -28 -76 -28q-37 0 -60 28q-25 28 -25 64q0 63 98 120q109 63 264 63q209 0 317 -90.5t108 -267.5v-559q0 -64 -16 -94q-25 -48 -89 -48q-47 0 -75 30q-22 25 -24 74 q-62 -60 -123 -83.5t-156 -23.5q-189 0 -279 94q-83 85 -83 222zM173 1345q0 38 47 78q78 64 171 64q44 0 77 -10t77 -36q66 -38 109 -38q47 0 90 35q32 26 61 26q35 0 55 -23q18 -21 18 -53q0 -38 -48 -79q-78 -64 -171 -64q-44 0 -76.5 10t-76.5 36q-66 38 -110 38 q-47 0 -90 -35q-33 -26 -60 -26q-36 0 -56 23q-17 20 -17 54zM289 308q0 -146 195 -146q64 0 108.5 12t81.5 47q46 43 46 155v82h-246q-91 0 -138 -38.5t-47 -111.5z" />
<glyph unicode="&#xe4;" horiz-adv-x="1085" d="M85 305q0 135 93.5 218t265.5 83h276v65q0 103 -52 152.5t-165 49.5q-109 0 -199 -69q-38 -28 -76 -28q-37 0 -60 28q-25 28 -25 64q0 63 98 120q109 63 264 63q209 0 317 -90.5t108 -267.5v-559q0 -64 -16 -94q-25 -48 -89 -48q-47 0 -75 30q-22 25 -24 74 q-62 -60 -123 -83.5t-156 -23.5q-189 0 -279 94q-83 85 -83 222zM185 1346q0 47 34 80.5t81 33.5q48 0 82.5 -33.5t34.5 -80.5t-35 -82t-82 -35t-81 35t-34 82zM289 308q0 -146 195 -146q64 0 108.5 12t81.5 47q46 43 46 155v82h-246q-91 0 -138 -38.5t-47 -111.5zM636 1346 q0 47 34.5 80.5t82.5 33.5q47 0 80.5 -33.5t33.5 -80.5q0 -48 -33.5 -82.5t-80.5 -34.5t-82 35t-35 82z" />
<glyph unicode="&#xe5;" horiz-adv-x="1085" d="M85 305q0 135 93.5 218t265.5 83h276v65q0 103 -52 152.5t-165 49.5q-109 0 -199 -69q-38 -28 -76 -28q-37 0 -60 28q-25 28 -25 64q0 63 98 120q109 63 264 63q209 0 317 -90.5t108 -267.5v-559q0 -64 -16 -94q-25 -48 -89 -48q-47 0 -75 30q-22 25 -24 74 q-62 -60 -123 -83.5t-156 -23.5q-189 0 -279 94q-83 85 -83 222zM269 1436q0 106 75 181t181 75t181 -75t75 -181t-75 -181t-181 -75t-181 75t-75 181zM289 308q0 -146 195 -146q64 0 108.5 12t81.5 47q46 43 46 155v82h-246q-91 0 -138 -38.5t-47 -111.5zM395 1436 q0 -54 38 -92t92 -38t92 38t38 92t-38 92t-92 38t-92 -38t-38 -92z" />
<glyph unicode="&#xe6;" horiz-adv-x="1708" d="M85 305q0 135 93.5 218t265.5 83h276v65q0 103 -52 152.5t-165 49.5q-109 0 -199 -69q-38 -28 -76 -28q-37 0 -60 28q-25 28 -25 64q0 63 98 120q111 64 264 64q247 0 347 -137q112 137 308 137q199 -1 316.5 -132t122.5 -341q2 -64 -28 -94q-13 -13 -30.5 -19 t-28.5 -6.5t-33 -0.5h-552q0 -135 69 -214t197 -79q119 0 200 65q47 38 85 38q32 0 59 -27t27 -62q0 -58 -105 -126q-101 -66 -271 -66q-251 0 -370 160q-75 -92 -159 -125.5t-212 -33.5q-189 0 -279 94q-83 85 -83 222zM289 308q0 -146 195 -146q64 0 108.5 12t81.5 47 q46 43 46 155v82h-246q-91 0 -138 -38.5t-47 -111.5zM927 604h467q-6 88 -29 141q-27 61 -80.5 96.5t-124.5 35.5q-73 0 -126.5 -35.5t-80.5 -96.5q-23 -52 -26 -141z" />
<glyph unicode="&#xe7;" horiz-adv-x="992" d="M113 519q0 141 38 246.5t104 166t146 90t172 29.5q125 0 228 -66q49 -31 75 -60t26 -65t-30 -68q-27 -27 -64 -27q-35 0 -83 40q-71 57 -152 57q-121 0 -189 -89q-62 -81 -62 -254t62 -253q68 -90 189 -90q78 0 152 58q50 40 83 40q37 0 64 -27q30 -32 30 -69 q0 -35 -27 -64.5t-74 -60.5q-102 -65 -228 -65q-73 0 -138.5 17.5t-125 58t-102.5 100.5t-68.5 151t-25.5 204zM339 -411q1 27 33 76l95 153q26 43 45 56q22 16 48 16t50 -15q47 -29 44 -79q-1 -28 -31 -76l-96 -152q-25 -42 -45 -57q-24 -16 -48 -16q-26 0 -50 16 q-48 29 -45 78z" />
<glyph unicode="&#xe8;" horiz-adv-x="1100" d="M113 519q0 253 119 392.5t321 139.5q199 0 316.5 -131t122.5 -341q2 -64 -28 -94q-13 -13 -31 -19t-28.5 -6.5t-33.5 -0.5h-552q0 -135 69.5 -214t197.5 -79q118 0 199 65q47 38 85 38q32 0 59 -27t27 -62q0 -59 -104 -126q-101 -66 -271 -66q-101 0 -183 28t-147.5 88.5 t-101.5 165.5t-36 249zM315 1508q-3 50 44 79q26 16 51 16t48 -17q20 -14 45 -56l95 -153q31 -50 32 -75q3 -50 -44 -79q-26 -16 -50 -16q-26 0 -49 17q-20 14 -45 56l-95 153q-31 50 -32 75zM319 604h467q-6 91 -28 141q-27 61 -80.5 96.5t-124.5 35.5q-73 0 -126.5 -35.5 t-80.5 -96.5q-24 -55 -27 -141z" />
<glyph unicode="&#xe9;" horiz-adv-x="1100" d="M113 519q0 253 119 392.5t321 139.5q199 0 316.5 -131t122.5 -341q2 -64 -28 -94q-13 -13 -31 -19t-28.5 -6.5t-33.5 -0.5h-552q0 -135 69.5 -214t197.5 -79q118 0 199 65q47 38 85 38q32 0 59 -27t27 -62q0 -59 -104 -126q-101 -66 -271 -66q-101 0 -183 28t-147.5 88.5 t-101.5 165.5t-36 249zM319 604h467q-6 91 -28 141q-27 61 -80.5 96.5t-124.5 35.5q-73 0 -126.5 -35.5t-80.5 -96.5q-24 -55 -27 -141zM480 1302q1 25 32 75l95 153q25 42 45 56q23 17 48 17t51 -16q47 -29 44 -79q-1 -25 -32 -75l-95 -153q-25 -42 -45 -56 q-23 -17 -49 -17q-24 0 -50 16q-47 29 -44 79z" />
<glyph unicode="&#xea;" horiz-adv-x="1100" d="M113 519q0 253 119 392.5t321 139.5q199 0 316.5 -131t122.5 -341q2 -64 -28 -94q-13 -13 -31 -19t-28.5 -6.5t-33.5 -0.5h-552q0 -135 69.5 -214t197.5 -79q118 0 199 65q47 38 85 38q32 0 59 -27t27 -62q0 -59 -104 -126q-101 -66 -271 -66q-101 0 -183 28t-147.5 88.5 t-101.5 165.5t-36 249zM251 1304q6 24 44 62l170 170q16 16 25.5 24t27.5 16.5t37 8.5t37 -8.5t27.5 -16.5t25.5 -24l170 -170q38 -38 44 -62q13 -44 -22 -79q-36 -35 -78 -23q-27 7 -64 44l-140 142l-140 -142q-37 -37 -64 -44q-42 -12 -78 23q-35 35 -22 79zM319 604h467 q-6 91 -28 141q-27 61 -80.5 96.5t-124.5 35.5q-73 0 -126.5 -35.5t-80.5 -96.5q-24 -55 -27 -141z" />
<glyph unicode="&#xeb;" horiz-adv-x="1100" d="M113 519q0 253 119 392.5t321 139.5q199 0 316.5 -131t122.5 -341q2 -64 -28 -94q-13 -13 -31 -19t-28.5 -6.5t-33.5 -0.5h-552q0 -135 69.5 -214t197.5 -79q118 0 199 65q47 38 85 38q32 0 59 -27t27 -62q0 -59 -104 -126q-101 -66 -271 -66q-101 0 -183 28t-147.5 88.5 t-101.5 165.5t-36 249zM215 1346q0 47 34 80.5t81 33.5t81.5 -33.5t34.5 -80.5t-34.5 -82t-81.5 -35t-81 35t-34 82zM319 604h467q-6 91 -28 141q-27 61 -80.5 96.5t-124.5 35.5q-73 0 -126.5 -35.5t-80.5 -96.5q-24 -55 -27 -141zM666 1346q0 47 34.5 80.5t81.5 33.5 t81 -33.5t34 -80.5t-34 -82t-81 -35t-81.5 35t-34.5 82z" />
<glyph unicode="&#xec;" horiz-adv-x="540" d="M32 1508q-3 50 44 79q26 16 50 16q25 0 48 -17q20 -14 45 -56l95 -153q31 -50 32 -75q3 -50 -44 -79q-26 -16 -50 -16q-25 0 -48 17q-20 14 -45 56l-96 153q-30 48 -31 75zM166 134v770q0 62 15 93q25 50 89 50t89 -50q16 -33 16 -93v-770q0 -60 -16 -93q-25 -49 -89 -49 t-89 49q-15 31 -15 93z" />
<glyph unicode="&#xed;" horiz-adv-x="540" d="M166 134v770q0 62 15 93q25 50 89 50t89 -50q16 -33 16 -93v-770q0 -60 -16 -93q-25 -49 -89 -49t-89 49q-15 31 -15 93zM197 1302q1 27 31 75l96 153q25 42 45 56q23 17 48 17q24 0 50 -16q47 -29 44 -79q-1 -25 -32 -75l-95 -153q-25 -42 -45 -56q-23 -17 -48 -17 q-24 0 -50 16q-47 29 -44 79z" />
<glyph unicode="&#xee;" horiz-adv-x="540" d="M-33 1304q6 24 44 62l170 170q16 16 25.5 24t27.5 16.5t37 8.5t37 -8.5t27.5 -16.5t25.5 -24l170 -170q38 -38 44 -62q13 -44 -22 -79q-36 -35 -78 -23q-26 7 -63 44l-141 142l-140 -142q-37 -37 -63 -44q-42 -12 -78 23q-35 35 -23 79zM166 134v770q0 62 15 93 q25 50 89 50t89 -50q16 -33 16 -93v-770q0 -60 -16 -93q-25 -49 -89 -49t-89 49q-15 31 -15 93z" />
<glyph unicode="&#xef;" horiz-adv-x="540" d="M-46 1346q0 47 34 80.5t81 33.5t81.5 -33.5t34.5 -80.5t-34.5 -82t-81.5 -35t-81 35t-34 82zM166 134v770q0 62 15 93q25 50 89 50t89 -50q16 -33 16 -93v-770q0 -60 -16 -93q-25 -49 -89 -49t-89 49q-15 31 -15 93zM355 1346q0 47 34.5 80.5t82.5 33.5q47 0 81 -33.5 t34 -80.5t-34 -82t-81 -35t-82 35t-35 82z" />
<glyph unicode="&#xf0;" horiz-adv-x="1099" d="M125 510q0 140 26 235t95 166q81 84 213 105q35 6 69 6q41 0 86 -10l-71 142h-165q-54 0 -74 12q-37 20 -37 68q0 49 37 69q20 12 74 12h85q-20 43 -20 69q0 38 30.5 65.5t68.5 27.5q27 0 49 -16q26 -19 53 -72l37 -74h111q52 0 72 -12q37 -20 37 -69q0 -48 -37 -68 q-20 -12 -72 -12h-29l87 -169q75 -149 100 -242t25 -233q0 -141 -25 -233t-96 -168q-114 -121 -305 -121q-189 0 -303 121q-71 76 -96 168t-25 233zM334 510q0 -101 13 -168.5t54 -110.5q59 -59 148 -59q90 0 149 59q41 43 54.5 111t13.5 168q0 99 -13 166t-55 110 q-60 60 -149 60q-88 0 -148 -60q-41 -43 -54 -109.5t-13 -166.5z" />
<glyph unicode="&#xf1;" horiz-adv-x="1163" d="M166 134v769q0 68 18 99q27 45 86 45q57 0 85 -41q17 -25 19 -69q108 114 273 114q158 0 256 -95q105 -102 105 -292v-530q0 -60 -16 -93q-24 -49 -89 -49t-89 49q-15 31 -15 93v499q0 116 -57.5 172.5t-151.5 56.5t-154.5 -57.5t-60.5 -171.5v-499q0 -60 -16 -93 q-25 -49 -89 -49t-89 49q-15 31 -15 93zM238 1345q0 38 47 78q78 64 171 64q44 0 76.5 -10t76.5 -36q66 -38 110 -38q47 0 90 35q33 26 60 26q36 0 56 -23q17 -20 17 -53q0 -39 -47 -79q-78 -64 -171 -64q-44 0 -77 10t-77 36q-66 38 -109 38q-47 0 -90 -35q-33 -26 -61 -26 q-35 0 -55 23q-17 20 -17 54z" />
<glyph unicode="&#xf2;" horiz-adv-x="1099" d="M118 519q0 144 25.5 240t96.5 169q119 123 310 123t310 -123q71 -73 96.5 -169.5t25.5 -239.5t-25.5 -239t-96.5 -169q-119 -123 -310 -123t-310 123q-71 73 -96.5 168.5t-25.5 239.5zM311 1508q-3 50 44 79q26 16 51 16t48 -17q20 -14 45 -56l95 -153q31 -50 32 -75 q3 -50 -44 -79q-26 -16 -51 -16t-48 17q-20 14 -45 56l-95 153q-31 50 -32 75zM327 519q0 -101 14.5 -171t56.5 -112q58 -60 152 -60q92 0 151 60q43 43 57.5 113t14.5 170t-14.5 170.5t-57.5 113.5q-58 59 -151 59q-94 0 -152 -59q-42 -43 -56.5 -113t-14.5 -171z" />
<glyph unicode="&#xf3;" horiz-adv-x="1099" d="M118 519q0 144 25.5 240t96.5 169q119 123 310 123t310 -123q71 -73 96.5 -169.5t25.5 -239.5t-25.5 -239t-96.5 -169q-119 -123 -310 -123t-310 123q-71 73 -96.5 168.5t-25.5 239.5zM327 519q0 -101 14.5 -171t56.5 -112q58 -60 152 -60q92 0 151 60q43 43 57.5 113 t14.5 170t-14.5 170.5t-57.5 113.5q-58 59 -151 59q-94 0 -152 -59q-42 -43 -56.5 -113t-14.5 -171zM476 1302q1 25 32 75l95 153q25 42 45 56q23 17 48 17q24 0 50 -16q48 -30 45 -79q-1 -25 -32 -75l-95 -153q-24 -40 -46 -56q-23 -17 -48 -17q-24 0 -50 16q-47 29 -44 79 z" />
<glyph unicode="&#xf4;" horiz-adv-x="1099" d="M118 519q0 144 25.5 240t96.5 169q119 123 310 123t310 -123q71 -73 96.5 -169.5t25.5 -239.5t-25.5 -239t-96.5 -169q-119 -123 -310 -123t-310 123q-71 73 -96.5 168.5t-25.5 239.5zM247 1304q6 24 44 62l170 170q16 16 25.5 24t27.5 16.5t37 8.5t37 -8.5t27.5 -16.5 t25.5 -24l170 -170q38 -38 44 -62q13 -44 -22 -79q-36 -35 -78 -23q-27 7 -64 44l-140 142l-140 -142q-37 -37 -64 -44q-42 -12 -78 23q-35 35 -22 79zM327 519q0 -101 14.5 -171t56.5 -112q58 -60 152 -60q92 0 151 60q43 43 57.5 113t14.5 170t-14.5 170.5t-57.5 113.5 q-58 59 -151 59q-94 0 -152 -59q-42 -43 -56.5 -113t-14.5 -171z" />
<glyph unicode="&#xf5;" horiz-adv-x="1099" d="M118 519q0 144 25.5 240t96.5 169q119 123 310 123t310 -123q71 -73 96.5 -169.5t25.5 -239.5t-25.5 -239t-96.5 -169q-119 -123 -310 -123t-310 123q-71 73 -96.5 168.5t-25.5 239.5zM199 1345q0 38 47 78q78 64 171 64q44 0 76.5 -10t76.5 -36q66 -38 110 -38 q47 0 90 35q32 26 60 26q36 0 56 -23q17 -20 17 -53q0 -39 -47 -79q-78 -64 -171 -64q-44 0 -77 10t-77 36q-66 38 -109 38q-47 0 -90 -35q-33 -26 -61 -26q-35 0 -55 23q-17 20 -17 54zM327 519q0 -101 14.5 -171t56.5 -112q58 -60 152 -60q92 0 151 60q43 43 57.5 113 t14.5 170t-14.5 170.5t-57.5 113.5q-58 59 -151 59q-94 0 -152 -59q-42 -43 -56.5 -113t-14.5 -171z" />
<glyph unicode="&#xf6;" horiz-adv-x="1099" d="M118 519q0 144 25.5 240t96.5 169q119 123 310 123t310 -123q71 -73 96.5 -169.5t25.5 -239.5t-25.5 -239t-96.5 -169q-119 -123 -310 -123t-310 123q-71 73 -96.5 168.5t-25.5 239.5zM211 1346q0 47 34 80.5t81 33.5t81.5 -33.5t34.5 -80.5t-34.5 -82t-81.5 -35t-81 35 t-34 82zM327 519q0 -101 14.5 -171t56.5 -112q58 -60 152 -60q92 0 151 60q43 43 57.5 113t14.5 170t-14.5 170.5t-57.5 113.5q-58 59 -151 59q-94 0 -152 -59q-42 -43 -56.5 -113t-14.5 -171zM662 1346q0 47 34.5 80.5t81.5 33.5t81 -33.5t34 -80.5t-34 -82t-81 -35 t-81.5 35t-34.5 82z" />
<glyph unicode="&#xf7;" d="M96 569q0 55 43 80q25 15 85 15h643q60 0 85 -15q43 -25 43 -80t-43 -80q-25 -14 -85 -14h-643q-60 0 -85 14q-43 25 -43 80zM396 173q0 61 44 104.5t106 43.5t105.5 -43.5t43.5 -104.5t-43.5 -105t-105.5 -44t-106 44t-44 105zM396 966q0 61 44 104t106 43t105.5 -43 t43.5 -104q0 -62 -44 -106t-105 -44q-62 0 -106 44t-44 106z" />
<glyph unicode="&#xf8;" horiz-adv-x="1099" d="M118 520q0 141 26.5 238.5t95.5 169.5q119 123 309 123q113 0 203 -46l41 69q27 46 52 56q34 12 65 -6q40 -22 38 -64q-3 -25 -25 -63l-51 -84q62 -71 86 -164.5t24 -228.5q0 -143 -26 -240t-96 -169q-119 -123 -311 -123q-113 0 -203 46l-42 -71q-27 -46 -52 -56 q-34 -12 -66 6q-39 23 -36 64q1 24 24 63l52 85q-62 70 -85 160.5t-23 234.5zM327 519q0 -151 37 -212l307 522q-51 33 -121 33q-96 0 -154 -58q-43 -44 -56 -112.5t-13 -172.5zM428 211q54 -35 121 -35q92 0 153 61q43 44 57 113.5t14 170.5q0 149 -38 212z" />
<glyph unicode="&#xf9;" horiz-adv-x="1163" d="M156 375v529q0 62 15 93q25 50 89 50t89 -50q16 -33 16 -93v-498q0 -116 57.5 -173t150.5 -57q94 0 154.5 58t60.5 172v498q0 60 16 93q25 50 89 50t89 -50q15 -31 15 -93v-769q0 -68 -18 -99q-27 -44 -86 -44q-57 0 -85 41q-16 23 -18 68q-107 -113 -274 -113 q-159 0 -256 94q-104 101 -104 293zM335 1508q-3 50 44 79q26 16 50 16q25 0 48 -17q20 -14 45 -56l95 -153q31 -50 32 -75q3 -50 -44 -79q-26 -16 -50 -16q-25 0 -48 17q-20 14 -45 56l-95 153q-31 50 -32 75z" />
<glyph unicode="&#xfa;" horiz-adv-x="1163" d="M156 375v529q0 62 15 93q25 50 89 50t89 -50q16 -33 16 -93v-498q0 -116 57.5 -173t150.5 -57q94 0 154.5 58t60.5 172v498q0 60 16 93q25 50 89 50t89 -50q15 -31 15 -93v-769q0 -68 -18 -99q-27 -44 -86 -44q-57 0 -85 41q-16 23 -18 68q-107 -113 -274 -113 q-159 0 -256 94q-104 101 -104 293zM500 1302q1 27 31 75l96 153q25 42 45 56q23 17 48 17q24 0 50 -16q47 -29 44 -79q-1 -25 -32 -75l-95 -153q-25 -42 -45 -56q-23 -17 -48 -17q-24 0 -50 16q-47 29 -44 79z" />
<glyph unicode="&#xfb;" horiz-adv-x="1163" d="M156 375v529q0 62 15 93q25 50 89 50t89 -50q16 -33 16 -93v-498q0 -116 57.5 -173t150.5 -57q94 0 154.5 58t60.5 172v498q0 60 16 93q25 50 89 50t89 -50q15 -31 15 -93v-769q0 -68 -18 -99q-27 -44 -86 -44q-57 0 -85 41q-16 23 -18 68q-107 -113 -274 -113 q-159 0 -256 94q-104 101 -104 293zM270 1304q6 24 44 62l170 170q16 16 25.5 24t27.5 16.5t37 8.5q42 0 91 -49l170 -170q38 -38 44 -62q12 -44 -23 -79q-36 -35 -78 -23q-26 7 -63 44l-141 142l-140 -142q-37 -37 -63 -44q-42 -12 -78 23q-35 35 -23 79z" />
<glyph unicode="&#xfc;" horiz-adv-x="1163" d="M156 375v529q0 62 15 93q25 50 89 50t89 -50q16 -33 16 -93v-498q0 -116 57.5 -173t150.5 -57q94 0 154.5 58t60.5 172v498q0 60 16 93q25 50 89 50t89 -50q15 -31 15 -93v-769q0 -68 -18 -99q-27 -44 -86 -44q-57 0 -85 41q-16 23 -18 68q-107 -113 -274 -113 q-159 0 -256 94q-104 101 -104 293zM234 1346q0 47 34 80.5t81 33.5q48 0 82.5 -33.5t34.5 -80.5t-35 -82t-82 -35t-81 35t-34 82zM685 1346q0 47 34.5 80.5t82.5 33.5q47 0 80.5 -33.5t33.5 -80.5q0 -48 -33.5 -82.5t-80.5 -34.5t-82 35t-35 82z" />
<glyph unicode="&#xfd;" horiz-adv-x="919" d="M54 984q8 25 36 44t62 19q43 0 64 -25.5t37 -75.5l205 -636l209 636q16 50 37 75.5t64 25.5q34 0 61.5 -19t35.5 -44q11 -36 -11 -100l-378 -1092q-29 -83 -76 -129q-78 -77 -203 -77q-68 0 -97 25q-29 26 -29 71q0 50 31 73q26 20 70 20q49 0 81 24.5t53 85.5l50 153 l-290 846q-22 68 -12 100zM383 1302q1 25 32 75l95 153q25 42 45 56q23 17 48 17q24 0 50 -16q47 -29 44 -79q-1 -27 -31 -75l-96 -153q-25 -42 -45 -56q-23 -17 -48 -17q-24 0 -50 16q-47 29 -44 79z" />
<glyph unicode="&#xfe;" horiz-adv-x="1132" d="M166 -285v1609q0 62 15 93q25 49 89 49t89 -49q16 -33 16 -93v-390q55 65 119.5 91t152.5 26q159 0 252 -93q68 -70 91.5 -178t23.5 -260q0 -153 -23.5 -261.5t-91.5 -178.5q-43 -43 -110 -67.5t-144 -24.5q-86 0 -150.5 26t-119.5 91v-390q0 -60 -16 -93 q-25 -49 -89 -49t-89 49q-15 31 -15 93zM375 519q0 -62 4 -107.5t17.5 -92t36 -76.5t62.5 -48.5t95 -18.5t94.5 18.5t62.5 48.5t36.5 76.5t17.5 92.5t4 107t-4 107t-17.5 92.5t-36.5 76.5t-62.5 48.5t-94.5 18.5t-95 -18.5t-62.5 -48.5t-36 -76.5t-17.5 -92t-4 -107.5z" />
<glyph unicode="&#xff;" horiz-adv-x="919" d="M54 984q8 25 36 44t62 19q43 0 64 -25.5t37 -75.5l205 -636l209 636q16 50 37 75.5t64 25.5q34 0 61.5 -19t35.5 -44q11 -36 -11 -100l-378 -1092q-29 -83 -76 -129q-78 -77 -203 -77q-68 0 -97 25q-29 26 -29 71q0 50 31 73q26 20 70 20q49 0 81 24.5t53 85.5l50 153 l-290 846q-22 68 -12 100zM118 1346q0 47 33.5 80.5t80.5 33.5q48 0 82.5 -33.5t34.5 -80.5t-35 -82t-82 -35t-80.5 34.5t-33.5 82.5zM568 1346q0 47 34.5 80.5t82.5 33.5q47 0 81 -33.5t34 -80.5t-34 -82t-81 -35t-82 35t-35 82z" />
<glyph unicode="&#x152;" horiz-adv-x="2007" d="M138 729q0 108 2 167.5t9.5 130.5t23 115.5t43 91t69.5 88.5q148 148 378 148q173 0 296 -101q5 30 32 57q32 32 103 32h678q63 0 90 -14q45 -25 45 -84t-45 -84q-27 -14 -90 -14h-586v-428h481q61 0 90 -15q45 -25 45 -84t-45 -84q-27 -14 -90 -14h-481v-440h586 q61 0 90 -15q45 -25 45 -84t-45 -84q-27 -14 -90 -14h-678q-71 0 -103 32q-27 27 -32 57q-123 -101 -296 -101q-230 0 -378 148q-42 42 -69.5 88.5t-43 91t-23 115.5t-9.5 130.5t-2 167.5zM359 729q0 -221 16 -308.5t70 -144.5q86 -92 218 -92q130 0 217 92q53 57 69.5 145 t16.5 308t-16.5 308.5t-69.5 145.5q-86 91 -217 91q-133 0 -218 -91q-54 -57 -70 -145t-16 -309z" />
<glyph unicode="&#x153;" horiz-adv-x="1762" d="M118 519q0 143 26 239.5t97 169.5q120 124 310 124q111 0 197 -44t138 -123q112 167 329 167q200 -1 317.5 -132t122.5 -341v-9q0 -56 -29 -85q-13 -13 -30.5 -19t-28.5 -6.5t-33 -0.5h-552q0 -135 69 -214t197 -79q119 0 200 65q47 38 85 38q32 0 59 -27t27 -62 q0 -58 -105 -126q-101 -66 -272 -66q-243 0 -359 164q-52 -77 -137 -120.5t-195 -43.5q-191 0 -310 123q-71 73 -97 169t-26 239zM328 519q0 -101 14.5 -171t56.5 -112q59 -60 152 -60t151 60q43 43 57.5 113t14.5 170t-14.5 170.5t-57.5 113.5q-58 59 -151 59 q-94 0 -152 -59q-42 -43 -56.5 -113t-14.5 -171zM982 604h467q-6 88 -29 141q-27 60 -80 95.5t-125 35.5q-73 0 -126 -35t-80 -96q-24 -55 -27 -141z" />
<glyph unicode="&#x178;" horiz-adv-x="1071" d="M45 1372q2 55 57 82q24 12 53 12q27 0 50 -15q15 -10 25 -24.5t29 -52.5l277 -554l276 554q19 38 29 52.5t25 24.5q22 15 50 15q29 0 53 -12q55 -27 57 -82q1 -34 -28 -91l-352 -700v-439q0 -43 -2.5 -61t-13.5 -39q-27 -50 -94 -50q-68 0 -95 50q-11 21 -13.5 39 t-2.5 61v439l-352 700q-29 57 -28 91zM195 1718q0 47 33.5 81t80.5 34t82 -34t35 -81t-35 -81.5t-82 -34.5t-80.5 34.5t-33.5 81.5zM643 1718q0 47 35 81t82 34t80.5 -34t33.5 -81t-33.5 -81.5t-80.5 -34.5t-82 34.5t-35 81.5z" />
<glyph unicode="&#x2c6;" horiz-adv-x="1101" d="M247 1304q6 24 44 62l170 170q16 16 25.5 24t27.5 16.5t37 8.5t37 -8.5t27.5 -16.5t25.5 -24l170 -170q38 -38 44 -62q13 -44 -22 -79q-36 -35 -78 -23q-27 7 -64 44l-140 142l-140 -142q-37 -37 -64 -44q-42 -12 -78 23q-35 35 -22 79z" />
<glyph unicode="&#x2dc;" horiz-adv-x="1101" d="M199 1345q0 38 47 78q78 64 171 64q44 0 76.5 -10t76.5 -36q66 -38 110 -38q47 0 90 35q32 26 60 26q36 0 56 -23q17 -20 17 -53q0 -39 -47 -79q-78 -64 -171 -64q-44 0 -77 10t-77 36q-66 38 -109 38q-47 0 -90 -35q-33 -26 -61 -26q-35 0 -55 23q-17 20 -17 54z" />
<glyph unicode="&#x2000;" horiz-adv-x="1023" />
<glyph unicode="&#x2001;" horiz-adv-x="2047" />
<glyph unicode="&#x2002;" horiz-adv-x="1023" />
<glyph unicode="&#x2003;" horiz-adv-x="2047" />
<glyph unicode="&#x2004;" horiz-adv-x="682" />
<glyph unicode="&#x2005;" horiz-adv-x="511" />
<glyph unicode="&#x2006;" horiz-adv-x="341" />
<glyph unicode="&#x2007;" horiz-adv-x="341" />
<glyph unicode="&#x2008;" horiz-adv-x="255" />
<glyph unicode="&#x2009;" horiz-adv-x="409" />
<glyph unicode="&#x200a;" horiz-adv-x="113" />
<glyph unicode="&#x2010;" horiz-adv-x="874" d="M130 568q0 55 43 80q25 15 85 15h358q60 0 85 -15q43 -25 43 -80t-43 -80q-25 -14 -85 -14h-358q-60 0 -85 14q-43 25 -43 80z" />
<glyph unicode="&#x2011;" horiz-adv-x="874" d="M130 568q0 55 43 80q25 15 85 15h358q60 0 85 -15q43 -25 43 -80t-43 -80q-25 -14 -85 -14h-358q-60 0 -85 14q-43 25 -43 80z" />
<glyph unicode="&#x2012;" horiz-adv-x="874" d="M130 568q0 55 43 80q25 15 85 15h358q60 0 85 -15q43 -25 43 -80t-43 -80q-25 -14 -85 -14h-358q-60 0 -85 14q-43 25 -43 80z" />
<glyph unicode="&#x2013;" d="M96 568q0 55 43 80q25 15 85 15h643q60 0 85 -15q43 -25 43 -80t-43 -80q-25 -14 -85 -14h-643q-60 0 -85 14q-43 25 -43 80z" />
<glyph unicode="&#x2014;" horiz-adv-x="1988" d="M96 568q0 55 43 80q25 15 85 15h1540q60 0 85 -15q43 -25 43 -80t-43 -80q-25 -14 -85 -14h-1540q-60 0 -85 14q-43 25 -43 80z" />
<glyph unicode="&#x2018;" horiz-adv-x="541" d="M121 1054q-6 32 14 93l73 216q20 62 42 83q25 24 65 24q34 0 67 -21t39 -58q6 -33 -14 -94l-73 -216q-20 -62 -42 -83q-26 -24 -66 -24q-34 0 -66.5 21.5t-38.5 58.5z" />
<glyph unicode="&#x2019;" horiz-adv-x="541" d="M121 1054q-6 32 14 93l73 216q20 62 42 83q25 24 65 24q34 0 67 -21t39 -58q6 -33 -14 -94l-73 -216q-20 -62 -42 -83q-26 -24 -66 -24q-34 0 -66.5 21.5t-38.5 58.5z" />
<glyph unicode="&#x201a;" horiz-adv-x="541" d="M121 -180q-6 32 14 93l73 216q20 62 42 83q27 25 65 25q34 0 67 -21.5t39 -58.5q6 -33 -14 -94l-73 -216q-20 -62 -42 -83q-26 -24 -66 -24q-34 0 -66.5 21.5t-38.5 58.5z" />
<glyph unicode="&#x201c;" horiz-adv-x="944" d="M121 1054q-6 32 14 93l73 216q20 62 42 83q25 24 65 24q34 0 67 -21t39 -58q6 -33 -14 -94l-73 -216q-20 -62 -42 -83q-26 -24 -66 -24q-34 0 -66.5 21.5t-38.5 58.5zM523 1054q-6 30 15 93l72 216q20 62 42 83q26 24 66 24q34 0 66.5 -21t38.5 -58q6 -33 -14 -94 l-73 -216q-20 -62 -42 -83q-26 -24 -65 -24q-34 0 -67 21.5t-39 58.5z" />
<glyph unicode="&#x201d;" horiz-adv-x="944" d="M121 1054q-6 32 14 93l73 216q20 62 42 83q25 24 65 24q34 0 67 -21t39 -58q6 -33 -14 -94l-73 -216q-20 -62 -42 -83q-26 -24 -66 -24q-34 0 -66.5 21.5t-38.5 58.5zM523 1054q-6 30 15 93l72 216q20 62 42 83q26 24 66 24q34 0 66.5 -21t38.5 -58q6 -33 -14 -94 l-73 -216q-20 -62 -42 -83q-26 -24 -65 -24q-34 0 -67 21.5t-39 58.5z" />
<glyph unicode="&#x201e;" horiz-adv-x="944" d="M121 -155q-6 33 14 94l73 216q20 62 42 83q25 24 65 24q34 0 67 -21.5t39 -58.5q6 -32 -14 -93l-73 -216q-20 -62 -42 -83q-26 -24 -66 -24q-34 0 -66.5 21t-38.5 58zM523 -155q-6 31 15 94l72 216q20 62 42 83q26 24 66 24q34 0 66.5 -21.5t38.5 -58.5q6 -32 -14 -93 l-73 -216q-20 -62 -42 -83q-26 -24 -65 -24q-34 0 -67 21t-39 58z" />
<glyph unicode="&#x2022;" d="M212 568q0 138 98 236t236 98t236 -98t98 -236t-98 -236t-236 -98t-236 98t-98 236z" />
<glyph unicode="&#x2026;" horiz-adv-x="1634" d="M135 141q0 62 44 106t106 44t105.5 -44t43.5 -106t-43.5 -105.5t-105.5 -43.5t-106 43.5t-44 105.5zM668 141q0 62 43.5 106t105.5 44t106 -44t44 -106t-44 -105.5t-106 -43.5t-105.5 43.5t-43.5 105.5zM1200 141q0 62 44 106t106 44t105.5 -44t43.5 -106t-43.5 -105.5 t-105.5 -43.5t-106 43.5t-44 105.5z" />
<glyph unicode="&#x202f;" horiz-adv-x="409" />
<glyph unicode="&#x2039;" horiz-adv-x="730" d="M75 538l332 331q28 28 41.5 38.5t30.5 14.5q50 13 91 -28q40 -40 27 -89q-8 -30 -52 -74l-194 -193l194 -194q44 -44 52 -74q13 -49 -27 -89t-91 -27q-27 7 -72 52z" />
<glyph unicode="&#x203a;" horiz-adv-x="730" d="M133 270q8 30 52 74l194 194l-194 193q-44 44 -52 74q-13 49 27 89q41 41 91 28q27 -7 73 -53l331 -331l-331 -332q-45 -45 -73 -52q-51 -13 -91 27t-27 89z" />
<glyph unicode="&#x205f;" horiz-adv-x="511" />
<glyph unicode="&#x20ac;" horiz-adv-x="1412" d="M118 579q0 47 37 67q22 12 72 12h40v150h-40q-50 0 -72 12q-37 20 -37 68q0 47 37 67q23 13 72 13h45q8 121 39 201.5t103 152.5q148 148 376 148q132 0 221.5 -37.5t159.5 -112.5q56 -61 84 -125.5t28 -109.5q0 -53 -30 -83q-33 -30 -76 -30q-40 0 -66 21q-28 21 -54 83 q-41 98 -107 148t-165 50q-125 0 -210 -91q-37 -40 -54.5 -88t-25.5 -127h280q50 0 73 -13q37 -20 37 -67q0 -48 -37 -68q-22 -12 -73 -12h-287v-150h287q51 0 73 -12q37 -20 37 -67q0 -48 -37 -68q-22 -12 -73 -12h-280q7 -84 25 -134t55 -90q85 -91 210 -91q99 0 165 50 t107 148q26 62 54 83q26 21 66 21q43 0 76 -30q30 -30 30 -83q0 -45 -28 -109.5t-84 -125.5q-70 -75 -159.5 -112.5t-221.5 -37.5q-228 0 -376 148q-73 73 -104 155.5t-39 207.5h-44q-50 0 -72 12q-37 20 -37 68z" />
<glyph unicode="&#x2122;" horiz-adv-x="1807" d="M75 1388q0 40 31 59q17 11 64 11h451q46 0 63 -11q32 -19 32 -59q0 -41 -32 -60q-17 -11 -63 -11h-146v-632q0 -51 -12 -73q-20 -37 -68 -37q-47 0 -67 37q-13 23 -13 73v632h-145q-47 0 -64 11q-31 19 -31 60zM851 685v654q0 69 26 96q27 27 69 27q31 0 54 -15 q27 -20 51 -66l217 -420l217 420q24 47 50 66q23 15 54 15q43 0 70 -27q25 -26 25 -96v-654q0 -51 -12 -73q-20 -37 -67 -37q-48 0 -68 37q-12 22 -12 73v469l-159 -313q-30 -62 -98 -62q-69 0 -99 62l-158 313v-469q0 -50 -13 -73q-20 -37 -67 -37q-48 0 -68 37 q-12 22 -12 73z" />
<glyph unicode="&#x25fc;" horiz-adv-x="1044" d="M0 0v1044h1044v-1044h-1044z" />
<glyph unicode="&#xfb01;" horiz-adv-x="1205" d="M54 958q0 48 37 68q22 12 73 12h48v143q0 124 71.5 205.5t210.5 81.5h20q59 0 88 -16q42 -22 42 -73t-42 -73q-24 -13 -76 -15q-105 -3 -105 -120v-133h114q50 0 72 -12q37 -20 37 -68q0 -47 -37 -67q-22 -12 -72 -12h-114v-745q0 -62 -15 -93q-24 -49 -90 -49 q-64 0 -89 49q-15 31 -15 93v745h-48q-51 0 -73 12q-37 20 -37 67zM809 1377q0 53 36.5 89.5t89.5 36.5t89.5 -36.5t36.5 -89.5t-36.5 -89.5t-89.5 -36.5t-89.5 36.5t-36.5 89.5zM830 134v770q0 60 16 93q25 50 89 50t89 -50q15 -31 15 -93v-770q0 -62 -15 -93 q-24 -49 -89 -49t-89 49q-16 33 -16 93z" />
<glyph unicode="&#xfb02;" horiz-adv-x="1298" d="M54 958q0 48 37 68q22 12 73 12h48v143q0 124 71.5 205.5t210.5 81.5h20q59 0 88 -16q42 -22 42 -73t-42 -73q-24 -13 -76 -15q-105 -3 -105 -120v-133h114q50 0 72 -12q37 -20 37 -68q0 -47 -37 -67q-22 -12 -72 -12h-114v-745q0 -62 -15 -93q-24 -49 -90 -49 q-64 0 -89 49q-15 31 -15 93v745h-48q-51 0 -73 12q-37 20 -37 67zM829 288v1038q0 60 16 93q25 49 89 49t89 -49q15 -31 15 -93v-1029q0 -117 106 -120q54 -2 76 -14q42 -22 42 -74q0 -51 -42 -73q-29 -16 -88 -16h-21q-139 0 -210.5 82t-71.5 206z" />
</font>
</defs>
</svg>
